<svg width="142" height="33" viewBox="0 0 142 33" fill="none" xmlns="http://www.w3.org/2000/svg">
<rect x="16.5" y="6.875" width="125.125" height="20.625" fill="#06080A"/>
<g clip-path="url(#clip0_63_255)">
<circle cx="16.5" cy="16.5" r="16.5" fill="#0C1015"/>
<path d="M16.5 0C7.40162 0 0 7.40162 0 16.5C0 25.5984 7.40162 33 16.5 33C25.5984 33 33 25.5984 33 16.5C33 7.40162 25.5984 0 16.5 0ZM16.5 30.25C8.91825 30.25 2.75 24.0817 2.75 16.5C2.75 8.91825 8.91825 2.75 16.5 2.75C24.0817 2.75 30.25 8.91825 30.25 16.5C30.25 24.0817 24.0817 30.25 16.5 30.25Z" fill="#FF9E00"/>
<path d="M9 16.5L16.5 6L24 16.5L16.5 27L9 16.5Z" fill="#FF9E00"/>
<path d="M9 16.5L16.5 6L12 16.5L16.5 27L9 16.5Z" fill="black" fill-opacity="0.7"/>
<path d="M12 16.5L16.5 6L15 16.5L16.5 27L12 16.5Z" fill="black" fill-opacity="0.3"/>
</g>
<defs>
<clipPath id="clip0_63_255">
<rect width="33" height="33" fill="white"/>
</clipPath>
</defs>
</svg>
