<svg width="40" height="40" viewBox="0 0 40 40" fill="none" xmlns="http://www.w3.org/2000/svg">
<g clip-path="url(#clip0_102_2)">
<path d="M33.2483 4.40668L20 0.0150146L6.75167 4.40668C5.75753 4.73339 4.89188 5.36555 4.27808 6.21307C3.66429 7.0606 3.33366 8.08024 3.33333 9.12668V20C3.33333 32.54 18.6667 39.465 19.3233 39.7533L19.9133 40.015L20.5267 39.8117C21.185 39.5917 36.6667 34.295 36.6667 20V9.12668C36.6661 8.0803 36.3354 7.06078 35.7216 6.2133C35.1078 5.36583 34.2423 4.73361 33.2483 4.40668ZM33.3333 20C33.3333 30.4383 22.7517 35.36 20.0783 36.435C17.4 35.0967 6.66667 29.1567 6.66667 20V9.12668C6.66681 8.7778 6.7771 8.43787 6.98181 8.15535C7.18651 7.87283 7.47518 7.66215 7.80667 7.55335L20 3.51001L32.1933 7.55335C32.5251 7.66171 32.8141 7.87227 33.0188 8.15489C33.2236 8.43751 33.3337 8.77767 33.3333 9.12668V20Z" fill="#00A7FE"/>
</g>
<g clip-path="url(#clip1_102_2)">
<path d="M40.4351 -0.438328L40.4351 -0.438347L40.4277 -0.445648C39.7615 -1.10263 38.9352 -1.57404 38.0306 -1.81311C37.126 -2.05219 36.1747 -2.05062 35.2709 -1.80857L35.2176 -1.7943L35.1652 -1.77712L28.9736 0.252879L28.52 0.401594L28.1825 0.73913L8.80338 20.1182C6.72146 19.1453 4.51899 18.4485 2.25186 18.0473L0.219154 17.6875L-0.0761039 19.7306L-0.55277 23.0289L-0.827116 24.9273L1.05812 25.2808C3.23701 25.6893 5.32202 26.4735 7.22199 27.5929L4.16667 30.6482L3.87421 30.3558L2.46 28.9416L1.04579 30.3558L-1.31088 32.7125L-2.72509 34.1267L-1.31088 35.5409L4.52245 41.3742L5.93667 42.7884L7.35088 41.3742L9.70755 39.0176L11.1218 37.6033L9.70755 36.1891L9.35176 35.8333L12.4074 32.7777C13.5266 34.6772 14.3102 36.7621 14.7174 38.9408L15.0699 40.8271L16.9693 40.5528L20.2693 40.0761L22.311 39.7812L21.953 37.7496C21.5533 35.4814 20.8566 33.2781 19.8824 31.196L39.2609 11.8176L39.5991 11.4793L39.7477 11.0246L41.8227 4.67456L41.8529 4.58213L41.874 4.48721C42.0686 3.61149 42.0388 2.70075 41.7872 1.83961C41.5357 0.978492 41.0705 0.194919 40.4351 -0.438328ZM32.4688 6.82468L33.5207 6.47915L33.175 7.53331L15.721 24.9888C15.6065 24.8682 15.4904 24.749 15.373 24.6312L15.368 24.6262C15.2509 24.5096 15.1325 24.3945 15.0127 24.2807L32.4688 6.82468Z" fill="#00A7FE" stroke="#0C1015" stroke-width="4"/>
<g clip-path="url(#clip2_102_2)">
<path d="M184.579 -176.595L15 -232.808L-154.579 -176.595C-167.304 -172.413 -178.384 -164.321 -186.241 -153.473C-194.097 -142.625 -198.329 -129.573 -198.333 -116.179V23C-198.333 183.512 -2.06668 272.152 6.33865 275.843L13.8907 279.192L21.7413 276.589C30.168 273.773 228.333 205.976 228.333 23V-116.179C228.326 -129.572 224.093 -142.622 216.236 -153.47C208.38 -164.318 197.302 -172.41 184.579 -176.595ZM185.667 23C185.667 156.611 50.2213 219.608 16.0027 233.368C-18.28 216.237 -155.667 140.205 -155.667 23V-116.179C-155.665 -120.644 -154.253 -124.995 -151.633 -128.612C-149.013 -132.228 -145.318 -134.925 -141.075 -136.317L15 -188.072L171.075 -136.317C175.321 -134.93 179.02 -132.235 181.641 -128.618C184.262 -125 185.671 -120.646 185.667 -116.179V23Z" fill="black"/>
</g>
</g>
<defs>
<clipPath id="clip0_102_2">
<rect width="40" height="40" fill="white"/>
</clipPath>
<clipPath id="clip1_102_2">
<rect width="40" height="40" fill="white"/>
</clipPath>
<clipPath id="clip2_102_2">
<rect width="512" height="512" fill="white" transform="translate(-241 -233)"/>
</clipPath>
</defs>
</svg>
