<svg width="113" height="150" viewBox="0 0 113 150" fill="none" xmlns="http://www.w3.org/2000/svg">
<ellipse cx="56.0185" cy="138.426" rx="56.0185" ry="11.5741" fill="black" fill-opacity="0.3"/>
<path d="M10.2593 30C10.2593 13.9837 23.243 1 39.2593 1H71.8518C87.8681 1 100.852 13.9837 100.852 30V73.0741H10.2593V30Z" fill="#F2C2B4" stroke="black" stroke-width="2"/>
<path d="M11.2593 68.6667H99.8518V116.852C99.8518 121.27 96.2701 124.852 91.8518 124.852H19.2593C14.841 124.852 11.2593 121.27 11.2593 116.852V68.6667Z" fill="#A9A8B6" stroke="black" stroke-width="4"/>
<path d="M37.037 2.5H74.0741C88.0346 2.5 99.3518 13.8172 99.3518 27.7778V74.0741V121.852C99.3518 123.233 98.2325 124.352 96.8518 124.352H14.2593C12.8785 124.352 11.7593 123.233 11.7593 121.852V74.0741V27.7778C11.7593 13.8172 23.0765 2.5 37.037 2.5Z" stroke="black" stroke-width="5"/>
<circle cx="36.1111" cy="43.5185" r="6.48148" fill="black"/>
<circle cx="75" cy="43.5185" r="6.48148" fill="black"/>
<path d="M37.8283 140.456C36.792 142.934 33.2723 142.906 32.2751 140.413L26.8518 126.852H43.5185L37.8283 140.456Z" fill="black"/>
<path d="M78.569 140.456C77.5328 142.934 74.013 142.906 73.0158 140.413L67.5926 126.852H84.2592L78.569 140.456Z" fill="black"/>
</svg>
