<svg width="393" height="55" viewBox="0 0 393 55" fill="none" xmlns="http://www.w3.org/2000/svg">
<rect width="393" height="55" fill="#0C1015"/>
<path d="M358.983 20.7708L360.72 18.5729C361.339 17.749 361.256 16.5781 360.495 15.8188L358.816 14.275C358.623 14.099 358.372 14 358.111 14H353.746C353.486 14 353.234 14.0979 353.041 14.275L351.331 15.849C350.602 16.5781 350.519 17.749 351.154 18.5927L352.875 20.7708C349.203 22.0417 346.555 25.526 346.555 29.625C346.555 34.7937 350.761 39 355.93 39C361.098 39 365.305 34.7937 365.305 29.625C365.305 25.526 362.655 22.0417 358.983 20.7708ZM352.772 17.3521L354.153 16.0833H357.713L359.07 17.301L356.708 20.2896C356.45 20.2687 356.192 20.25 355.93 20.25C355.665 20.25 355.405 20.2677 355.145 20.2896L352.772 17.3521ZM355.929 36.9167C351.908 36.9167 348.637 33.6458 348.637 29.625C348.637 25.6042 351.908 22.3333 355.929 22.3333C359.949 22.3333 363.22 25.6042 363.22 29.625C363.22 33.6458 359.949 36.9167 355.929 36.9167Z" fill="#00A7FE"/>
<path d="M101.327 34.0729C101.309 34.026 99.7516 31.1885 99.7516 31.1885L99.885 30.8051C100.27 29.7176 100.988 27.6937 100.988 25.4312C100.988 18.6354 93.6058 14.9999 92.1277 14.3406C91.1141 13.8885 89.9537 13.8885 88.9423 14.3406C87.4745 14.9947 80.1548 18.6041 80.1548 25.4312C80.1548 27.7906 80.8829 29.9208 81.2339 30.9437L81.3204 31.1874C81.2995 31.2176 79.8308 34.0322 79.8162 34.0729C79.5266 34.8458 79.586 35.7062 79.9798 36.4333C80.3735 37.1604 81.062 37.6791 81.8245 37.8479L85.7662 38.9051C86.6745 39.1354 87.6131 38.9322 88.3495 38.3583C89.086 37.7843 89.5068 36.9187 89.5058 35.9854L89.4995 29.9354C89.4995 29.5937 89.3308 29.2729 89.0495 29.0791C87.3725 27.9218 86.3714 26.7624 86.3714 25.9801C86.3714 24.9874 86.9412 24.4176 87.9339 24.4176C88.1912 24.4176 88.4985 24.5468 88.7673 24.7656L89.1183 25.1604C89.4777 25.5656 89.9954 25.7979 90.537 25.7979C91.0787 25.7979 91.5964 25.5656 91.9558 25.1614L92.3068 24.7656C92.5787 24.5437 92.8798 24.4176 93.1402 24.4176C94.1329 24.4176 94.7027 24.9874 94.7027 25.9801C94.7027 26.7624 93.7037 27.9197 92.0308 29.0749C91.7485 29.2708 91.5808 29.5906 91.5808 29.9333L91.586 35.9937C91.586 36.926 92.0079 37.7895 92.7423 38.3614C93.2777 38.7791 93.9204 38.9989 94.587 38.9989C94.835 38.9989 95.087 38.9687 95.337 38.9062L99.2714 37.8583C100.078 37.6781 100.766 37.1583 101.16 36.4322C101.554 35.7062 101.613 34.8458 101.324 34.0718L101.327 34.0729ZM99.3318 35.4395C99.2693 35.5551 99.1204 35.7583 98.7808 35.8343L94.8214 36.8885C94.5423 36.9604 94.2537 36.8968 94.0287 36.7197C93.8027 36.5437 93.6735 36.2781 93.6735 35.9916L93.6683 30.4676C95.7402 28.9406 96.7891 27.4322 96.7891 25.9791C96.7891 23.8322 95.2902 22.3333 93.1433 22.3333C92.362 22.3333 91.4693 22.7458 90.8027 23.3239L90.5391 23.6197L90.2756 23.3239C89.6089 22.7447 88.7173 22.3333 87.935 22.3333C85.7881 22.3333 84.2891 23.8322 84.2891 25.9791C84.2891 27.4322 85.3412 28.9426 87.4173 30.4718L87.4225 35.9854C87.4225 36.2718 87.2933 36.5385 87.0673 36.7145C86.8412 36.8926 86.5495 36.9531 86.2891 36.8874L82.3204 35.8239C82.0225 35.7583 81.8735 35.5551 81.811 35.4395C81.7527 35.3312 81.6704 35.1156 81.7506 34.8531L83.0902 32.2874C83.4173 31.7604 83.4923 31.1229 83.2923 30.527L83.2048 30.2697C82.8673 29.2822 82.2381 27.4437 82.2381 25.4312C82.2381 19.7739 89.0173 16.5885 89.7912 16.2437C90.2652 16.0322 90.8016 16.0322 91.2777 16.2437C92.0589 16.5916 98.9048 19.8062 98.9048 25.4312C98.9048 27.3354 98.2891 29.0718 97.9214 30.1093L97.7756 30.526C97.5693 31.1426 97.6558 31.8041 97.9673 32.2656L99.3943 34.8614C99.4704 35.1197 99.3902 35.3322 99.3318 35.4395Z" fill="#00A7FE"/>
<g clip-path="url(#clip0_9_2541)">
<path d="M152.824 15.2448C151.286 14.4188 149.666 14 148.007 14H139.278C137.62 14 135.999 14.4188 134.461 15.2448C132.415 16.3438 131.143 18.5156 131.143 20.9125V32.75C131.143 34.4729 132.545 35.875 134.268 35.875H135.751C136.557 37.7115 138.388 39 140.518 39H146.768C148.898 39 150.728 37.7115 151.535 35.875H153.018C154.741 35.875 156.143 34.4729 156.143 32.75V20.9125C156.143 18.5156 154.871 16.3427 152.824 15.2448ZM146.656 16.0833C146.181 17.3271 145.002 18.1667 143.642 18.1667C142.281 18.1667 141.102 17.3271 140.628 16.0833H146.656ZM154.058 32.75C154.058 33.324 153.592 33.7917 153.017 33.7917H151.975V21.2917C151.975 20.7167 151.51 20.25 150.933 20.25C150.357 20.25 149.892 20.7167 149.892 21.2917V33.7917C149.892 35.5146 148.49 36.9167 146.767 36.9167H140.517C138.794 36.9167 137.392 35.5146 137.392 33.7917V21.2917C137.392 20.7167 136.925 20.25 136.35 20.25C135.775 20.25 135.308 20.7167 135.308 21.2917V33.7917H134.267C133.693 33.7917 133.225 33.324 133.225 32.75V20.9125C133.225 19.2844 134.076 17.8156 135.445 17.0802C136.421 16.5562 137.432 16.2458 138.463 16.1354C139.029 18.5583 141.158 20.25 143.642 20.25C146.125 20.25 148.253 18.5583 148.821 16.1354C149.85 16.2458 150.863 16.5562 151.84 17.0802C153.208 17.8156 154.06 19.2844 154.06 20.9125L154.058 32.75Z" fill="#00A7FE"/>
</g>
<g clip-path="url(#clip1_9_2541)">
<path d="M205.048 21.4229V21.2917C205.045 19.3585 204.276 17.5051 202.909 16.1381C201.543 14.7711 199.689 14.0022 197.756 14L192.548 14C190.614 14.0022 188.761 14.7711 187.394 16.1381C186.027 17.5051 185.258 19.3585 185.256 21.2917V28.4458C185.253 30.1584 185.781 31.8297 186.766 33.2302L187.339 34.0479V39H205.048V34.1656L205.582 33.6583C206.399 32.8787 207.05 31.9418 207.495 30.904C207.94 29.8662 208.171 28.749 208.173 27.6198V25.4583C208.171 24.5348 207.864 23.6377 207.299 22.9075C206.733 22.1773 205.941 21.6552 205.048 21.4229ZM189.423 36.9167V34.8333H202.964V36.9167H189.423ZM206.089 27.6198C206.088 28.4668 205.914 29.3047 205.58 30.0831C205.246 30.8615 204.758 31.5642 204.146 32.149L203.513 32.75H188.974L188.472 32.0344C187.733 30.9837 187.337 29.7302 187.339 28.4458V24.8792C187.97 25.2541 188.689 25.454 189.423 25.4583H197.756V23.375H189.423C188.87 23.375 188.34 23.1555 187.949 22.7648C187.559 22.3741 187.339 21.8442 187.339 21.2917C187.341 19.9108 187.89 18.587 188.867 17.6106C189.843 16.6343 191.167 16.085 192.548 16.0833H197.756C199.137 16.085 200.461 16.6343 201.437 17.6106C202.413 18.587 202.963 19.9108 202.964 21.2917V21.4229C202.07 21.6552 201.279 22.1773 200.713 22.9075C200.148 23.6377 199.84 24.5348 199.839 25.4583V28.7323H201.923V25.4583C201.923 24.9058 202.142 24.3759 202.533 23.9852C202.924 23.5945 203.453 23.375 204.006 23.375C204.558 23.375 205.088 23.5945 205.479 23.9852C205.87 24.3759 206.089 24.9058 206.089 25.4583V27.6198Z" fill="#00A7FE"/>
</g>
<g clip-path="url(#clip2_9_2541)">
<path d="M257.125 25.8625L252.911 24.6948V20.25H254.994V16.0833C254.994 14.9323 254.062 14 252.911 14H239.369C238.218 14 237.286 14.9323 237.286 16.0833V20.25H239.369V39H241.452V36.9167H243.536V39H245.619V36.9167H247.702V39H249.786V36.9167H251.869V39H253.952V36.9167H256.036V39H258.119V36.9167H260.202V39H262.286V32.2292C262.286 29.1365 260.085 26.4521 257.125 25.8625ZM239.369 16.0833H252.911V18.1667H239.369V16.0833ZM241.452 34.8333V20.25H250.827V24.4458H246.661V26.5292H251.728L256.643 27.8885C258.705 28.301 260.202 30.126 260.202 32.2292V34.8333H241.452Z" fill="#00A7FE"/>
</g>
<g clip-path="url(#clip3_9_2541)">
<path d="M50.6766 13.0762C50.1888 12.6317 49.6004 12.3107 48.9608 12.1417C48.269 11.9589 47.5415 11.9601 46.8503 12.1452L46.797 12.1594L46.7446 12.1766L42.8748 13.4454L42.4212 13.5941L42.0837 13.9316L30.3373 25.678C29.1206 25.1543 27.8458 24.7724 26.5381 24.541L24.5054 24.1813L24.2102 26.2244L23.9122 28.2858L23.6379 30.1842L25.5231 30.5376C26.4758 30.7162 27.3979 31.0175 28.2671 31.4316L27.6042 32.0945L26.5375 31.0278L25.1233 32.442L23.6504 33.915L22.2362 35.3292L23.6504 36.7434L27.2962 40.3892L28.7104 41.8034L30.1246 40.3892L31.5976 38.9163L33.0118 37.5021L31.9055 36.3958L32.5686 35.7328C32.9823 36.6016 33.2831 37.5234 33.4611 38.4758L33.8137 40.3621L35.713 40.0878L37.7755 39.7899L39.8173 39.495L39.4592 37.4633C39.2286 36.1548 38.8468 34.8793 38.3226 33.6621L50.0684 21.9163L50.4067 21.578L50.5552 21.1233L51.8521 17.1545L51.8823 17.0621L51.9034 16.9672C52.0525 16.2965 52.0296 15.599 51.8369 14.9394C51.6605 14.3356 51.347 13.7815 50.9218 13.32L51.041 12.9565L50.6766 13.0762Z" fill="#00A7FE" stroke="#0C1015" stroke-width="4"/>
<g clip-path="url(#clip4_9_2541)">
<path d="M140.362 -96.3717L34.375 -131.505L-71.6117 -96.3717C-79.5648 -93.758 -86.49 -88.7007 -91.4003 -81.9205C-96.3107 -75.1403 -98.9557 -66.9832 -98.9583 -58.6117V28.375C-98.9583 128.695 23.7083 184.095 28.9617 186.402L33.6817 188.495L38.5883 186.868C43.855 185.108 167.708 142.735 167.708 28.375V-58.6117C167.704 -66.9827 165.058 -75.1389 160.148 -81.9187C155.238 -88.6985 148.314 -93.7562 140.362 -96.3717ZM141.042 28.375C141.042 111.882 56.3883 151.255 35.0017 159.855C13.575 149.148 -72.2917 101.628 -72.2917 28.375V-58.6117C-72.2905 -61.4027 -71.4082 -64.1222 -69.7705 -66.3823C-68.1329 -68.6425 -65.8235 -70.3279 -63.1717 -71.1983L34.375 -103.545L131.922 -71.1983C134.576 -70.3315 136.887 -68.6469 138.526 -66.386C140.164 -64.1251 141.045 -61.4037 141.042 -58.6117V28.375Z" fill="black"/>
</g>
</g>
<g clip-path="url(#clip5_9_2541)">
<path d="M315.352 14.8149C315.352 14.3648 314.987 14 314.537 14C314.087 14 313.722 14.3648 313.722 14.8149C313.722 20.806 308.848 25.6802 302.857 25.6802C296.866 25.6802 291.992 20.806 291.992 14.8149C291.992 14.3648 291.627 14 291.177 14C290.727 14 290.362 14.3648 290.362 14.8149C290.362 21.4309 295.531 26.8614 302.042 27.2827V29.2521C301.519 28.897 300.921 28.7126 300.269 28.7126C298.292 28.7126 296.865 30.339 296.865 32.3065C296.865 34.8338 299.228 36.1475 302.327 38.8038C302.479 38.9346 302.668 39 302.857 39C303.046 39 303.235 38.9346 303.387 38.8038C306.482 36.1516 308.849 34.835 308.849 32.3065C308.849 30.3382 307.421 28.7126 305.446 28.7126C304.793 28.7126 304.195 28.897 303.672 29.2521V27.2827C310.183 26.8614 315.352 21.4309 315.352 14.8149ZM305.446 30.3423C306.598 30.3423 307.219 31.3543 307.219 32.3064C307.219 33.8179 305.584 34.8392 302.857 37.1177C300.126 34.8352 298.495 33.8163 298.495 32.3064C298.495 31.3543 299.116 30.3423 300.269 30.3423C301.58 30.3423 302.051 31.8944 302.073 31.9694C302.173 32.3193 302.492 32.5631 302.857 32.5631C303.222 32.5631 303.542 32.322 303.641 31.9701C303.66 31.9036 304.131 30.3423 305.446 30.3423Z" fill="#00A7FE"/>
<path d="M293.915 17.079C293.796 16.6811 293.402 16.3996 292.955 16.4673C292.512 16.5339 292.194 16.9951 292.335 17.4791C292.447 17.9703 292.932 18.2289 293.36 18.0746C293.573 18.0009 293.734 17.8491 293.825 17.6721C293.922 17.4927 293.97 17.2817 293.915 17.079Z" fill="#00A7FE"/>
<path d="M295.132 19.8601C294.918 19.5049 294.417 19.3886 294.019 19.597C293.62 19.8063 293.507 20.3246 293.769 20.7535C294.045 21.1727 294.591 21.2581 294.936 20.9794C295.292 20.694 295.359 20.2064 295.132 19.8601Z" fill="#00A7FE"/>
<path d="M297.194 22.093C296.855 21.8528 296.378 21.862 296.061 22.1976C295.759 22.5149 295.784 23.0838 296.191 23.3782C296.591 23.683 297.118 23.6106 297.365 23.2217C297.6 22.8506 297.524 22.3445 297.194 22.093Z" fill="#00A7FE"/>
<path d="M299.863 23.5416C299.472 23.4017 299.006 23.6148 298.823 24.0135C298.631 24.433 298.858 24.9134 299.332 25.0826C299.801 25.2665 300.293 24.9726 300.393 24.547C300.501 24.0968 300.248 23.6972 299.863 23.5416Z" fill="#00A7FE"/>
<path d="M303.687 24.8233C303.643 24.3754 303.272 24.0275 302.857 24.0504C302.443 24.0275 302.071 24.3754 302.028 24.8233C301.984 25.2712 302.355 25.6567 302.857 25.6802C303.359 25.6567 303.73 25.2711 303.687 24.8233Z" fill="#00A7FE"/>
<path d="M306.891 24.0136C306.708 23.6148 306.242 23.4018 305.852 23.5416C305.467 23.6973 305.213 24.0969 305.321 24.5471C305.421 24.9726 305.913 25.2665 306.382 25.0826C306.856 24.9134 307.083 24.433 306.891 24.0136Z" fill="#00A7FE"/>
<path d="M309.653 22.1976C309.336 21.8619 308.86 21.8528 308.521 22.093C308.19 22.3444 308.114 22.8505 308.349 23.2216C308.596 23.6106 309.123 23.6829 309.523 23.3781C309.931 23.0838 309.955 22.5148 309.653 22.1976Z" fill="#00A7FE"/>
<path d="M311.695 19.597C311.297 19.3886 310.797 19.5049 310.582 19.8601C310.355 20.2064 310.422 20.6939 310.778 20.9794C311.123 21.258 311.669 21.1726 311.945 20.7535C312.207 20.3246 312.094 19.8063 311.695 19.597Z" fill="#00A7FE"/>
<path d="M312.76 16.4673C312.312 16.3996 311.919 16.6811 311.799 17.079C311.745 17.2818 311.792 17.4928 311.889 17.6721C311.98 17.8491 312.142 18.001 312.354 18.0746C312.782 18.2288 313.267 17.9703 313.379 17.4791C313.52 16.9951 313.202 16.5339 312.76 16.4673Z" fill="#00A7FE"/>
</g>
<defs>
<clipPath id="clip0_9_2541">
<rect width="25" height="25" fill="white" transform="translate(131.143 14)"/>
</clipPath>
<clipPath id="clip1_9_2541">
<rect width="25" height="25" fill="white" transform="translate(184.214 14)"/>
</clipPath>
<clipPath id="clip2_9_2541">
<rect width="25" height="25" fill="white" transform="translate(237.286 14)"/>
</clipPath>
<clipPath id="clip3_9_2541">
<rect width="25" height="25" fill="white" transform="translate(25 14)"/>
</clipPath>
<clipPath id="clip4_9_2541">
<rect width="320" height="320" fill="white" transform="translate(-125.625 -131.625)"/>
</clipPath>
<clipPath id="clip5_9_2541">
<rect width="25" height="25" fill="white" transform="translate(290.357 14)"/>
</clipPath>
</defs>
</svg>
