<svg width="120" height="74" viewBox="0 0 120 74" fill="none" xmlns="http://www.w3.org/2000/svg">
<path d="M37.5023 8H120V31H14L37.5023 8Z" fill="black" fill-opacity="0.2"/>
<path d="M19.8791 23.5711L33.439 10.0282L34.6507 6.33825L18.7223 22.2465C19.1369 22.6618 19.5234 23.1043 19.8791 23.5711Z" fill="#FFE2D0"/>
<path d="M19.8791 23.5711L33.439 10.0282L34.6507 6.33825L18.7223 22.2465C19.1369 22.6618 19.5234 23.1043 19.8791 23.5711Z" fill="black" fill-opacity="0.2"/>
<path d="M17.397 21.0924C17.8638 21.4474 18.3065 21.833 18.7223 22.2465L34.6507 6.33825L30.9581 7.54955L17.397 21.0924Z" fill="#FFE2D0"/>
<path d="M17.397 21.0924C17.8638 21.4474 18.3065 21.833 18.7223 22.2465L34.6507 6.33825L30.9581 7.54955L17.397 21.0924Z" fill="black" fill-opacity="0.12"/>
<path d="M21.1715 25.5825L35.4882 11.2851L36.9445 6.83468C37.0297 6.45151 37.0166 6.05303 36.9064 5.67625C36.7962 5.29948 36.5924 4.95663 36.314 4.67956L34.6507 6.33825L33.439 10.0282L19.8791 23.5711C20.4216 24.2109 20.6877 24.6683 21.1715 25.5825Z" fill="#FFE2D0"/>
<path d="M21.1715 25.5825L35.4882 11.2851L36.9445 6.83468C37.0297 6.45151 37.0166 6.05303 36.9064 5.67625C36.7962 5.29948 36.5924 4.95663 36.314 4.67956L34.6507 6.33825L33.439 10.0282L19.8791 23.5711C20.4216 24.2109 20.6877 24.6683 21.1715 25.5825Z" fill="black" fill-opacity="0.3"/>
<path fill-rule="evenodd" clip-rule="evenodd" d="M36.314 4.67956C36.0207 4.3907 35.6569 4.18344 35.2587 4.07833C34.8604 3.97322 34.4416 3.97391 34.0437 4.08033L29.6984 5.50306L15.3817 19.8005C16.1809 20.1661 16.6226 20.4419 17.397 21.0924L30.9581 7.54955L34.6507 6.33825L36.314 4.67956Z" fill="#FFE2D0"/>
<path d="M15.3817 19.8005C13.7813 18.9392 12.0534 18.339 10.2632 18.0226L9.92871 20.3343C12.2061 20.7607 14.3513 21.7158 16.1911 23.1225L11.8516 27.4561L10.6539 26.26L9 27.9117L13.0938 32L14.7477 30.3483L13.5055 29.1078L17.845 24.7742C19.2541 26.6111 20.2102 28.7536 20.6358 31.0281L22.9518 30.6941C22.6362 28.906 22.0352 27.1802 21.1715 25.5825C20.6877 24.6683 20.4216 24.2109 19.8791 23.5711C19.5234 23.1043 19.1369 22.6618 18.7223 22.2465C18.3065 21.833 17.8638 21.4474 17.397 21.0924C16.6226 20.4419 16.1809 20.1661 15.3817 19.8005Z" fill="#9D2308"/>
<path d="M28.9918 4.79548L15.1896 18.5791C13.6857 17.8484 12.0864 17.3294 10.4373 17.0379L9.42131 16.8584L9.27355 17.8794L8.93902 20.1911L8.80161 21.1406L9.74468 21.3172C11.4902 21.644 13.1523 22.3039 14.6414 23.2569L11.8516 26.0429L11.3605 25.5524L10.6539 24.8467L9.94728 25.5524L8.29337 27.2041L7.58483 27.9117L8.29337 28.6193L12.3872 32.7076L13.0938 33.4133L13.8005 32.7076L15.4544 31.0559L16.1629 30.3483L15.4544 29.6407L14.9207 29.1078L17.711 26.3212C18.666 27.8084 19.3266 29.4686 19.6529 31.2121L19.8293 32.1548L20.7786 32.0179L23.0945 31.6838L24.1159 31.5365L23.9365 30.5203C23.6459 28.8732 23.1265 27.276 22.3943 25.7747L36.1949 11.9927L36.3642 11.8236L36.4386 11.5961L37.8949 7.14567L37.91 7.09941L37.9206 7.0519C38.0425 6.50401 38.0238 5.93421 37.8662 5.39548C37.8045 5.18465 37.7224 4.98128 37.6214 4.78808L37.7346 4.67513L37.0194 3.97075L37.0157 3.96709L36.3133 3.26802L36.2035 3.37745C35.985 3.26418 35.7538 3.17478 35.5139 3.11144C34.9473 2.96189 34.3514 2.96287 33.7853 3.11429L33.7587 3.1214L33.7325 3.12997L29.3872 4.55271L29.1605 4.62693L28.9918 4.79548Z" stroke="#3E0E01" stroke-width="2"/>
<mask id="path-4-outside-1_28_587" maskUnits="userSpaceOnUse" x="16" y="23" width="31" height="12" fill="black">
<rect fill="white" x="16" y="23" width="31" height="12"/>
<path d="M18.9269 33L22.8149 24.54H24.3149L28.2029 33H26.3309L25.5389 31.164H21.5909L20.8109 33H18.9269ZM23.5469 26.52L22.2149 29.712H24.9269L23.5709 26.52H23.5469ZM30.0008 33V26.076H27.2048V24.54H34.6568V26.076H31.8608V33H30.0008ZM35.5668 33V24.54H37.4268V28.224H37.4508L40.9668 24.54H43.1988L39.2628 28.584L43.3668 33H41.1108L37.4508 29.136H37.4268V33H35.5668Z"/>
</mask>
<path d="M18.9269 33L22.8149 24.54H24.3149L28.2029 33H26.3309L25.5389 31.164H21.5909L20.8109 33H18.9269ZM23.5469 26.52L22.2149 29.712H24.9269L23.5709 26.52H23.5469ZM30.0008 33V26.076H27.2048V24.54H34.6568V26.076H31.8608V33H30.0008ZM35.5668 33V24.54H37.4268V28.224H37.4508L40.9668 24.54H43.1988L39.2628 28.584L43.3668 33H41.1108L37.4508 29.136H37.4268V33H35.5668Z" fill="white"/>
<path d="M18.9269 33L17.5639 32.3736L16.5867 34.5H18.9269V33ZM22.8149 24.54V23.04H21.8534L21.4519 23.9136L22.8149 24.54ZM24.3149 24.54L25.6778 23.9136L25.2763 23.04H24.3149V24.54ZM28.2029 33V34.5H30.5431L29.5658 32.3736L28.2029 33ZM26.3309 33L24.9536 33.5941L25.3443 34.5H26.3309V33ZM25.5389 31.164L26.9162 30.5699L26.5254 29.664H25.5389V31.164ZM21.5909 31.164V29.664H20.5984L20.2103 30.5775L21.5909 31.164ZM20.8109 33V34.5H21.8034L22.1915 33.5865L20.8109 33ZM23.5469 26.52V25.02H22.5475L22.1626 25.9423L23.5469 26.52ZM22.2149 29.712L20.8306 29.1343L19.9636 31.212H22.2149V29.712ZM24.9269 29.712V31.212H27.1938L26.3075 29.1255L24.9269 29.712ZM23.5709 26.52L24.9515 25.9335L24.5634 25.02H23.5709V26.52ZM20.2898 33.6264L24.1778 25.1664L21.4519 23.9136L17.5639 32.3736L20.2898 33.6264ZM22.8149 26.04H24.3149V23.04H22.8149V26.04ZM22.9519 25.1664L26.8399 33.6264L29.5658 32.3736L25.6778 23.9136L22.9519 25.1664ZM28.2029 31.5H26.3309V34.5H28.2029V31.5ZM27.7082 32.4059L26.9162 30.5699L24.1616 31.7581L24.9536 33.5941L27.7082 32.4059ZM25.5389 29.664H21.5909V32.664H25.5389V29.664ZM20.2103 30.5775L19.4303 32.4135L22.1915 33.5865L22.9715 31.7505L20.2103 30.5775ZM20.8109 31.5H18.9269V34.5H20.8109V31.5ZM22.1626 25.9423L20.8306 29.1343L23.5992 30.2897L24.9312 27.0977L22.1626 25.9423ZM22.2149 31.212H24.9269V28.212H22.2149V31.212ZM26.3075 29.1255L24.9515 25.9335L22.1903 27.1065L23.5463 30.2985L26.3075 29.1255ZM23.5709 25.02H23.5469V28.02H23.5709V25.02ZM30.0008 33H28.5008V34.5H30.0008V33ZM30.0008 26.076H31.5008V24.576H30.0008V26.076ZM27.2048 26.076H25.7048V27.576H27.2048V26.076ZM27.2048 24.54V23.04H25.7048V24.54H27.2048ZM34.6568 24.54H36.1568V23.04H34.6568V24.54ZM34.6568 26.076V27.576H36.1568V26.076H34.6568ZM31.8608 26.076V24.576H30.3608V26.076H31.8608ZM31.8608 33V34.5H33.3608V33H31.8608ZM31.5008 33V26.076H28.5008V33H31.5008ZM30.0008 24.576H27.2048V27.576H30.0008V24.576ZM28.7048 26.076V24.54H25.7048V26.076H28.7048ZM27.2048 26.04H34.6568V23.04H27.2048V26.04ZM33.1568 24.54V26.076H36.1568V24.54H33.1568ZM34.6568 24.576H31.8608V27.576H34.6568V24.576ZM30.3608 26.076V33H33.3608V26.076H30.3608ZM31.8608 31.5H30.0008V34.5H31.8608V31.5ZM35.5668 33H34.0668V34.5H35.5668V33ZM35.5668 24.54V23.04H34.0668V24.54H35.5668ZM37.4268 24.54H38.9268V23.04H37.4268V24.54ZM37.4268 28.224H35.9268V29.724H37.4268V28.224ZM37.4508 28.224V29.724H38.0928L38.536 29.2596L37.4508 28.224ZM40.9668 24.54V23.04H40.3249L39.8817 23.5044L40.9668 24.54ZM43.1988 24.54L44.2738 25.5862L46.752 23.04H43.1988V24.54ZM39.2628 28.584L38.1879 27.5378L37.1929 28.5601L38.1641 29.6051L39.2628 28.584ZM43.3668 33V34.5H46.8086L44.4656 31.9789L43.3668 33ZM41.1108 33L40.0218 34.0315L40.4656 34.5H41.1108V33ZM37.4508 29.136L38.5399 28.1045L38.0961 27.636H37.4508V29.136ZM37.4268 29.136V27.636H35.9268V29.136H37.4268ZM37.4268 33V34.5H38.9268V33H37.4268ZM37.0668 33V24.54H34.0668V33H37.0668ZM35.5668 26.04H37.4268V23.04H35.5668V26.04ZM35.9268 24.54V28.224H38.9268V24.54H35.9268ZM37.4268 29.724H37.4508V26.724H37.4268V29.724ZM38.536 29.2596L42.052 25.5756L39.8817 23.5044L36.3657 27.1884L38.536 29.2596ZM40.9668 26.04H43.1988V23.04H40.9668V26.04ZM42.1239 23.4938L38.1879 27.5378L40.3378 29.6302L44.2738 25.5862L42.1239 23.4938ZM38.1641 29.6051L42.2681 34.0211L44.4656 31.9789L40.3616 27.5629L38.1641 29.6051ZM43.3668 31.5H41.1108V34.5H43.3668V31.5ZM42.1999 31.9685L38.5399 28.1045L36.3618 30.1675L40.0218 34.0315L42.1999 31.9685ZM37.4508 27.636H37.4268V30.636H37.4508V27.636ZM35.9268 29.136V33H38.9268V29.136H35.9268ZM37.4268 31.5H35.5668V34.5H37.4268V31.5Z" fill="#570000" mask="url(#path-4-outside-1_28_587)"/>
<path d="M30.24 41H120V64H24L30.24 41Z" fill="black" fill-opacity="0.2"/>
<g clip-path="url(#clip0_28_587)">
<path fill-rule="evenodd" clip-rule="evenodd" d="M23.8835 40.2853C25.0906 39.5611 26.4674 39.1681 27.875 39.1462C28.937 39.1924 31.1365 40.0628 32.4 41C33.8061 42.0429 34.9286 44.0714 35.2857 45.5C36.1972 49.107 26.0133 63.8493 15 62C14.1227 61.2097 13.5134 60.9292 12.6 59.9826C9.21767 56.477 6.00001 52.0637 6.00001 47.9587C5.91532 45.7144 6.72233 43.5278 8.24474 41.8765C9.76714 40.2253 11.8812 39.2437 14.125 39.1462C15.5326 39.1681 16.9094 39.5611 18.1166 40.2853C19.3237 41.0096 20.3183 42.0396 21 43.2712C21.6817 42.0396 22.6763 41.0096 23.8835 40.2853Z" fill="#FF553E"/>
<path d="M20.2775 66.6237L21 67.135L21.7225 66.6237C22.305 66.2112 36 56.4275 36 47.9587C34.9286 46.2143 35.6429 46.9286 35.2857 45.5C36.1972 49.107 26.0133 63.8493 15 62C17.5762 64.3208 20.0536 66.4642 20.2775 66.6237Z" fill="#FF553E"/>
<path d="M20.2775 66.6237L21 67.135L21.7225 66.6237C22.305 66.2112 36 56.4275 36 47.9587C34.9286 46.2143 35.6429 46.9286 35.2857 45.5C36.1972 49.107 26.0133 63.8493 15 62C17.5762 64.3208 20.0536 66.4642 20.2775 66.6237Z" fill="black" fill-opacity="0.2"/>
<path d="M20.1251 43.7555L21 45.3363L21.8749 43.7555C22.4714 42.6778 23.3417 41.7766 24.398 41.1428C25.4458 40.5141 26.6398 40.1708 27.8611 40.1466C29.83 40.2399 31.6835 41.1047 33.0201 42.5544C34.3634 44.0113 35.0754 45.9407 35.0007 47.921L35 47.9399V47.9587C35 49.8169 34.2434 51.8314 32.9979 53.8682C31.7588 55.8947 30.0848 57.8638 28.3666 59.6112C24.9309 63.1055 21.4167 65.6149 21.1446 65.8076L21 65.91L20.8578 65.8093C20.8573 65.809 20.8569 65.8087 20.8564 65.8083C20.562 65.5986 16.8455 62.9425 13.3196 59.2882C11.6589 57.567 10.0644 55.6486 8.89015 53.6827C7.71042 51.7075 7.00001 49.7593 7.00001 47.9587V47.9399L6.9993 47.921C6.92457 45.9407 7.63664 44.0113 8.97994 42.5544C10.3166 41.1047 12.17 40.2399 14.1389 40.1466C15.3603 40.1708 16.5542 40.5141 17.6021 41.1428C18.6583 41.7766 19.5286 42.6778 20.1251 43.7555Z" stroke="#570000" stroke-width="2"/>
<path d="M9.60001 48.2C9 44 12 40.4 16.8 43.4C12 42.92 9.80001 46 9.60001 48.2Z" fill="#D9D9D9"/>
</g>
<mask id="path-10-outside-2_28_587" maskUnits="userSpaceOnUse" x="20" y="55" width="20" height="12" fill="black">
<rect fill="white" x="20" y="55" width="20" height="12"/>
<path d="M22.186 65V56.54H24.046V59.936H27.982V56.54H29.842V65H27.982V61.484H24.046V65H22.186ZM31.5493 65V56.54H35.4133C36.3573 56.54 37.0853 56.78 37.5973 57.26C38.1093 57.732 38.3653 58.392 38.3653 59.24C38.3653 60.088 38.1093 60.752 37.5973 61.232C37.0853 61.712 36.3573 61.952 35.4133 61.952H33.4093V65H31.5493ZM33.4093 60.512H35.1013C36.0853 60.512 36.5773 60.088 36.5773 59.24C36.5773 58.408 36.0853 57.992 35.1013 57.992H33.4093V60.512Z"/>
</mask>
<path d="M22.186 65V56.54H24.046V59.936H27.982V56.54H29.842V65H27.982V61.484H24.046V65H22.186ZM31.5493 65V56.54H35.4133C36.3573 56.54 37.0853 56.78 37.5973 57.26C38.1093 57.732 38.3653 58.392 38.3653 59.24C38.3653 60.088 38.1093 60.752 37.5973 61.232C37.0853 61.712 36.3573 61.952 35.4133 61.952H33.4093V65H31.5493ZM33.4093 60.512H35.1013C36.0853 60.512 36.5773 60.088 36.5773 59.24C36.5773 58.408 36.0853 57.992 35.1013 57.992H33.4093V60.512Z" fill="white"/>
<path d="M22.186 65H20.686V66.5H22.186V65ZM22.186 56.54V55.04H20.686V56.54H22.186ZM24.046 56.54H25.546V55.04H24.046V56.54ZM24.046 59.936H22.546V61.436H24.046V59.936ZM27.982 59.936V61.436H29.482V59.936H27.982ZM27.982 56.54V55.04H26.482V56.54H27.982ZM29.842 56.54H31.342V55.04H29.842V56.54ZM29.842 65V66.5H31.342V65H29.842ZM27.982 65H26.482V66.5H27.982V65ZM27.982 61.484H29.482V59.984H27.982V61.484ZM24.046 61.484V59.984H22.546V61.484H24.046ZM24.046 65V66.5H25.546V65H24.046ZM23.686 65V56.54H20.686V65H23.686ZM22.186 58.04H24.046V55.04H22.186V58.04ZM22.546 56.54V59.936H25.546V56.54H22.546ZM24.046 61.436H27.982V58.436H24.046V61.436ZM29.482 59.936V56.54H26.482V59.936H29.482ZM27.982 58.04H29.842V55.04H27.982V58.04ZM28.342 56.54V65H31.342V56.54H28.342ZM29.842 63.5H27.982V66.5H29.842V63.5ZM29.482 65V61.484H26.482V65H29.482ZM27.982 59.984H24.046V62.984H27.982V59.984ZM22.546 61.484V65H25.546V61.484H22.546ZM24.046 63.5H22.186V66.5H24.046V63.5ZM31.5493 65H30.0493V66.5H31.5493V65ZM31.5493 56.54V55.04H30.0493V56.54H31.5493ZM37.5973 57.26L36.5713 58.3543L36.5806 58.3629L37.5973 57.26ZM33.4093 61.952V60.452H31.9093V61.952H33.4093ZM33.4093 65V66.5H34.9093V65H33.4093ZM33.4093 60.512H31.9093V62.012H33.4093V60.512ZM33.4093 57.992V56.492H31.9093V57.992H33.4093ZM33.0493 65V56.54H30.0493V65H33.0493ZM31.5493 58.04H35.4133V55.04H31.5493V58.04ZM35.4133 58.04C36.1103 58.04 36.4218 58.2141 36.5714 58.3543L38.6232 56.1657C37.7487 55.3459 36.6042 55.04 35.4133 55.04V58.04ZM36.5806 58.3629C36.7189 58.4904 36.8653 58.7125 36.8653 59.24H39.8653C39.8653 58.0715 39.4997 56.9736 38.614 56.1571L36.5806 58.3629ZM36.8653 59.24C36.8653 59.7666 36.719 59.9993 36.5714 60.1377L38.6232 62.3263C39.4995 61.5047 39.8653 60.4094 39.8653 59.24H36.8653ZM36.5714 60.1377C36.4218 60.2779 36.1103 60.452 35.4133 60.452V63.452C36.6042 63.452 37.7487 63.1461 38.6232 62.3263L36.5714 60.1377ZM35.4133 60.452H33.4093V63.452H35.4133V60.452ZM31.9093 61.952V65H34.9093V61.952H31.9093ZM33.4093 63.5H31.5493V66.5H33.4093V63.5ZM33.4093 62.012H35.1013V59.012H33.4093V62.012ZM35.1013 62.012C35.7744 62.012 36.5592 61.8718 37.1875 61.3303C37.8585 60.752 38.0773 59.9582 38.0773 59.24H35.0773C35.0773 59.3104 35.0667 59.3053 35.086 59.2554C35.096 59.2295 35.1127 59.1954 35.1387 59.1581C35.1649 59.1204 35.1958 59.0864 35.229 59.0577C35.2973 58.9989 35.3467 58.9868 35.3329 58.9908C35.3147 58.996 35.2444 59.012 35.1013 59.012V62.012ZM38.0773 59.24C38.0773 58.5207 37.8527 57.7301 37.1768 57.1586C36.549 56.6278 35.7688 56.492 35.1013 56.492V59.492C35.2465 59.492 35.3193 59.5079 35.3401 59.5138C35.3569 59.5185 35.3086 59.5077 35.2398 59.4494C35.206 59.4209 35.174 59.3864 35.1464 59.3476C35.119 59.3089 35.1009 59.2728 35.0895 59.2441C35.0676 59.1884 35.0773 59.1766 35.0773 59.24H38.0773ZM35.1013 56.492H33.4093V59.492H35.1013V56.492ZM31.9093 57.992V60.512H34.9093V57.992H31.9093Z" fill="#570000" mask="url(#path-10-outside-2_28_587)"/>
<defs>
<clipPath id="clip0_28_587">
<rect width="30" height="30" fill="white" transform="translate(6 38)"/>
</clipPath>
</defs>
</svg>
