<svg width="369" height="33" viewBox="0 0 369 33" fill="none" xmlns="http://www.w3.org/2000/svg">
<path d="M1 16H134" stroke="white" stroke-width="2" stroke-linecap="round"/>
<path d="M235 16H368" stroke="white" stroke-width="2" stroke-linecap="round"/>
<path d="M148.968 24V7.08H151.464V14.376H160.944V7.08H163.416V24H160.944V16.464H151.464V24H148.968ZM170.846 24.216C170.03 24.216 169.302 24.056 168.662 23.736C168.022 23.416 167.51 22.984 167.126 22.44C166.758 21.896 166.574 21.28 166.574 20.592C166.574 19.728 166.79 19.048 167.222 18.552C167.67 18.056 168.398 17.696 169.406 17.472C170.43 17.248 171.806 17.136 173.534 17.136H174.35V16.512C174.35 15.6 174.158 14.944 173.774 14.544C173.39 14.144 172.758 13.944 171.878 13.944C171.206 13.944 170.534 14.048 169.862 14.256C169.19 14.448 168.502 14.76 167.798 15.192L167.054 13.488C167.662 13.056 168.422 12.712 169.334 12.456C170.246 12.2 171.118 12.072 171.95 12.072C173.55 12.072 174.734 12.456 175.502 13.224C176.27 13.976 176.654 15.16 176.654 16.776V24H174.374V22.056C174.086 22.728 173.638 23.256 173.03 23.64C172.422 24.024 171.694 24.216 170.846 24.216ZM171.326 22.488C172.19 22.488 172.91 22.184 173.486 21.576C174.062 20.968 174.35 20.2 174.35 19.272V18.624H173.558C172.39 18.624 171.47 18.68 170.798 18.792C170.142 18.904 169.67 19.096 169.382 19.368C169.11 19.624 168.974 19.984 168.974 20.448C168.974 21.056 169.182 21.552 169.598 21.936C170.014 22.304 170.59 22.488 171.326 22.488ZM186.281 24.216C185.385 24.216 184.593 24.016 183.905 23.616C183.217 23.216 182.705 22.68 182.369 22.008V24H179.993V7.08H182.417V14.184C182.769 13.544 183.281 13.032 183.953 12.648C184.641 12.264 185.417 12.072 186.281 12.072C187.321 12.072 188.225 12.32 188.993 12.816C189.777 13.312 190.377 14.016 190.793 14.928C191.225 15.824 191.441 16.896 191.441 18.144C191.441 19.392 191.225 20.472 190.793 21.384C190.377 22.296 189.777 23 188.993 23.496C188.225 23.976 187.321 24.216 186.281 24.216ZM185.681 22.344C186.689 22.344 187.489 21.984 188.081 21.264C188.689 20.544 188.993 19.504 188.993 18.144C188.993 16.784 188.689 15.752 188.081 15.048C187.489 14.328 186.689 13.968 185.681 13.968C184.673 13.968 183.865 14.328 183.257 15.048C182.665 15.752 182.369 16.784 182.369 18.144C182.369 19.504 182.665 20.544 183.257 21.264C183.865 21.984 184.673 22.344 185.681 22.344ZM193.957 9.576V7.056H196.789V9.576H193.957ZM194.173 24V12.288H196.597V24H194.173ZM205.001 24.216C203.529 24.216 202.433 23.84 201.713 23.088C200.993 22.336 200.633 21.248 200.633 19.824V14.16H198.353V12.288H200.633V8.76H203.057V12.288H206.681V14.16H203.057V19.632C203.057 20.48 203.233 21.12 203.585 21.552C203.953 21.984 204.545 22.2 205.361 22.2C205.617 22.2 205.865 22.176 206.105 22.128C206.345 22.064 206.585 21.992 206.825 21.912L207.209 23.736C206.969 23.88 206.633 23.992 206.201 24.072C205.785 24.168 205.385 24.216 205.001 24.216ZM212.878 24.216C211.918 24.216 211.022 24.096 210.19 23.856C209.358 23.6 208.662 23.248 208.102 22.8L208.798 21.168C209.39 21.584 210.038 21.904 210.742 22.128C211.462 22.352 212.182 22.464 212.902 22.464C213.75 22.464 214.39 22.312 214.822 22.008C215.254 21.704 215.47 21.296 215.47 20.784C215.47 20.368 215.326 20.048 215.038 19.824C214.75 19.584 214.318 19.4 213.742 19.272L211.462 18.816C209.446 18.4 208.438 17.36 208.438 15.696C208.438 14.592 208.878 13.712 209.758 13.056C210.638 12.4 211.79 12.072 213.214 12.072C214.03 12.072 214.806 12.192 215.542 12.432C216.294 12.672 216.918 13.032 217.414 13.512L216.718 15.144C216.238 14.728 215.686 14.408 215.062 14.184C214.438 13.96 213.822 13.848 213.214 13.848C212.382 13.848 211.75 14.008 211.318 14.328C210.886 14.632 210.67 15.048 210.67 15.576C210.67 16.376 211.198 16.888 212.254 17.112L214.534 17.568C215.574 17.776 216.358 18.128 216.886 18.624C217.43 19.12 217.702 19.792 217.702 20.64C217.702 21.76 217.262 22.64 216.382 23.28C215.502 23.904 214.334 24.216 212.878 24.216Z" fill="white"/>
</svg>
