<svg width="393" height="658" viewBox="0 0 393 658" fill="none" xmlns="http://www.w3.org/2000/svg">
<path d="M208.21 64.8C213.001 83.5266 201.705 102.592 182.978 107.384C164.251 112.175 145.186 100.879 140.394 82.1521C135.603 63.4254 146.899 44.3601 165.626 39.5684C184.353 34.7768 203.418 46.0733 208.21 64.8Z" fill="url(#paint0_linear_100_1355)"/>
<path d="M232.214 41.6262C236.801 59.5503 225.988 77.7986 208.064 82.3849C190.14 86.9712 171.892 76.1588 167.305 58.2347C162.719 40.3106 173.532 22.0623 191.456 17.476C209.38 12.8897 227.628 23.7022 232.214 41.6262Z" fill="url(#paint1_linear_100_1355)"/>
<path d="M258.743 36.3865C262.577 51.3678 253.54 66.6201 238.558 70.4534C223.577 74.2867 208.325 65.2495 204.491 50.2681C200.658 35.2868 209.695 20.0345 224.677 16.2012C239.658 12.3679 254.91 21.4051 258.743 36.3865Z" fill="url(#paint2_linear_100_1355)"/>
<path d="M252.324 59.7057C256.978 77.8973 246.005 96.4179 227.813 101.073C209.621 105.727 191.101 94.7536 186.446 76.562C181.791 58.3704 192.765 39.8498 210.957 35.195C229.148 30.5403 247.669 41.5141 252.324 59.7057Z" fill="url(#paint3_linear_100_1355)"/>
<path d="M273.761 54.7366C276.704 66.2401 269.765 77.9517 258.262 80.8951C246.758 83.8385 235.046 76.8992 232.103 65.3957C229.16 53.8922 236.099 42.1806 247.602 39.2372C259.106 36.2937 270.817 43.2331 273.761 54.7366Z" fill="url(#paint4_linear_100_1355)"/>
<path d="M86 77C86 96.33 70.33 112 51 112C31.67 112 16 96.33 16 77C16 57.67 31.67 42 51 42C70.33 42 86 57.67 86 77Z" fill="url(#paint5_linear_100_1355)"/>
<path d="M115 60.5C115 79.0015 100.002 94 81.5 94C62.9985 94 48 79.0015 48 60.5C48 41.9985 62.9985 27 81.5 27C100.002 27 115 41.9985 115 60.5Z" fill="url(#paint6_linear_100_1355)"/>
<path d="M142 62C142 77.464 129.464 90 114 90C98.536 90 86 77.464 86 62C86 46.536 98.536 34 114 34C129.464 34 142 46.536 142 62Z" fill="url(#paint7_linear_100_1355)"/>
<path d="M130 83C130 101.778 114.778 117 96 117C77.2223 117 62 101.778 62 83C62 64.2223 77.2223 49 96 49C114.778 49 130 64.2223 130 83Z" fill="url(#paint8_linear_100_1355)"/>
<path d="M152 83.5C152 95.3741 142.374 105 130.5 105C118.626 105 109 95.3741 109 83.5C109 71.6259 118.626 62 130.5 62C142.374 62 152 71.6259 152 83.5Z" fill="url(#paint9_linear_100_1355)"/>
<path d="M340.21 91.8C345.001 110.527 333.705 129.592 314.978 134.384C296.251 139.175 277.186 127.879 272.394 109.152C267.603 90.4254 278.899 71.3601 297.626 66.5684C316.353 61.7768 335.418 73.0733 340.21 91.8Z" fill="url(#paint10_linear_100_1355)"/>
<path d="M364.214 68.6262C368.801 86.5503 357.988 104.799 340.064 109.385C322.14 113.971 303.892 103.159 299.305 85.2347C294.719 67.3106 305.532 49.0623 323.456 44.476C341.38 39.8897 359.628 50.7022 364.214 68.6262Z" fill="url(#paint11_linear_100_1355)"/>
<path d="M390.743 63.3865C394.577 78.3678 385.54 93.6201 370.558 97.4534C355.577 101.287 340.325 92.2495 336.491 77.2681C332.658 62.2868 341.695 47.0345 356.677 43.2012C371.658 39.3679 386.91 48.4051 390.743 63.3865Z" fill="url(#paint12_linear_100_1355)"/>
<path d="M384.324 86.7057C388.978 104.897 378.005 123.418 359.813 128.073C341.621 132.727 323.101 121.754 318.446 103.562C313.791 85.3704 324.765 66.8498 342.957 62.195C361.148 57.5403 379.669 68.5141 384.324 86.7057Z" fill="url(#paint13_linear_100_1355)"/>
<path d="M405.761 81.7366C408.704 93.2401 401.765 104.952 390.262 107.895C378.758 110.839 367.046 103.899 364.103 92.3957C361.16 80.8922 368.099 69.1806 379.602 66.2372C391.106 63.2937 402.817 70.2331 405.761 81.7366Z" fill="url(#paint14_linear_100_1355)"/>
<path d="M-1 94.5C-1 94.5 18 80 55.5 82.5C93 85 144 131 172 133.5C200 136 237.5 98 284 99.5C330.5 101 392 133.5 392 133.5V252H-1V94.5Z" fill="#252F3F"/>
<path d="M116.5 110C28 103.5 -1 164.5 -1 164.5V251.5H392C392 251.5 464 79.5 395.5 94C327 108.5 309.5 143 272 148.5C234.5 154 205 116.5 116.5 110Z" fill="#2E3A4D"/>
<rect y="248" width="393" height="410" fill="#2E3A4C"/>
<g opacity="0.7">
<path d="M41.9687 101.5L41.9687 92.6622" stroke="black" stroke-width="2" stroke-linecap="round"/>
<path d="M44.0897 75.34C44.0897 79.0883 41.9687 91.9552 41.9687 91.9552C41.9687 91.9552 40.5546 92.6622 34.5449 89.8341C28.5351 87.006 25 83.3449 25 75.34C25 67.3352 29.2734 60.846 34.5449 60.846C39.8164 60.846 44.0897 67.3352 44.0897 75.34Z" fill="#1F7C65"/>
<path d="M58.2303 75.34C58.2303 83.3449 53.6346 87.006 48.6854 89.8341C43.7362 92.6622 41.9687 91.9552 41.9687 91.9552C41.9687 91.9552 39.1405 79.0883 39.1405 75.34C39.1405 67.3352 43.4139 60.846 48.6854 60.846C53.9569 60.846 58.2303 67.3352 58.2303 75.34Z" fill="#1F7C65"/>
<path d="M51.16 60.4925C51.16 68.4973 46.8866 74.9865 41.6151 74.9865C36.3437 74.9865 32.0703 68.4973 32.0703 60.4925C32.0703 52.4876 36.3437 45.9984 41.6151 45.9984C46.8866 45.9984 51.16 52.4876 51.16 60.4925Z" fill="#1F7C65"/>
<path d="M35.4601 67.0589C34.669 67.8724 32.9741 67.8068 32.9741 67.8068C32.9741 67.8068 32.8614 66.1144 33.6525 65.3009C34.4436 64.4875 36.1385 64.5531 36.1385 64.5531C36.1385 64.5531 36.2512 66.2455 35.4601 67.0589Z" fill="#04AC81"/>
<path d="M33.8147 64.4121C34.5126 65.8417 33.6221 68.0467 33.6221 68.0467C33.6221 68.0467 31.3358 67.3925 30.6379 65.963C29.9401 64.5334 30.8306 62.3284 30.8306 62.3284C30.8306 62.3284 33.1169 62.9826 33.8147 64.4121Z" fill="#06CA98"/>
<path d="M52.1714 70.9635C51.4273 72.3695 49.1209 72.9488 49.1209 72.9488C49.1209 72.9488 48.3027 70.716 49.0468 69.31C49.7908 67.9039 52.0972 67.3246 52.0972 67.3246C52.0972 67.3246 52.9154 69.5574 52.1714 70.9635Z" fill="#06CA98"/>
<path d="M45.2651 53.6954C44.8717 55.4346 42.546 56.7367 42.546 56.7367C42.546 56.7367 41.0069 54.5604 41.4002 52.8212C41.7936 51.0821 44.1194 49.7799 44.1194 49.7799C44.1194 49.7799 45.6585 51.9562 45.2651 53.6954Z" fill="#04AC81"/>
<path d="M47.0328 54.4949C45.7417 56.2481 42.5026 56.5668 42.5026 56.5668C42.5026 56.5668 41.8457 53.3791 43.1367 51.6259C44.4278 49.8727 47.6669 49.554 47.6669 49.554C47.6669 49.554 48.3238 52.7417 47.0328 54.4949Z" fill="#06CA98"/>
<path d="M40.6478 78.0174C41.1317 79.5328 39.9318 81.5859 39.9318 81.5859C39.9318 81.5859 37.7641 80.6081 37.2802 79.0927C36.7963 77.5772 37.9962 75.5241 37.9962 75.5241C37.9962 75.5241 40.1639 76.5019 40.6478 78.0174Z" fill="#06CA98"/>
</g>
<g opacity="0.5">
<path d="M283.741 123.943V116.787" stroke="black" stroke-width="2" stroke-linecap="round"/>
<path d="M285.458 102.76C285.458 105.795 283.741 116.214 283.741 116.214C283.741 116.214 282.596 116.787 277.729 114.497C272.863 112.207 270 109.242 270 102.76C270 96.2779 273.46 91.0231 277.729 91.0231C281.998 91.0231 285.458 96.2779 285.458 102.76Z" fill="#1F7C65"/>
<path d="M296.909 102.76C296.909 109.242 293.187 112.207 289.18 114.497C285.172 116.787 283.741 116.214 283.741 116.214C283.741 116.214 281.451 105.795 281.451 102.76C281.451 96.2779 284.911 91.0231 289.18 91.0231C293.448 91.0231 296.909 96.2779 296.909 102.76Z" fill="#1F7C65"/>
<path d="M291.184 90.7368C291.184 97.2189 287.723 102.474 283.454 102.474C279.186 102.474 275.725 97.2189 275.725 90.7368C275.725 84.2548 279.186 79 283.454 79C287.723 79 291.184 84.2548 291.184 90.7368Z" fill="#1F7C65"/>
<path d="M278.47 96.0542C277.83 96.7129 276.457 96.6598 276.457 96.6598C276.457 96.6598 276.366 95.2893 277.007 94.6306C277.647 93.9719 279.02 94.025 279.02 94.025C279.02 94.025 279.111 95.3955 278.47 96.0542Z" fill="#04AC81"/>
<path d="M277.138 93.9109C277.703 95.0685 276.982 96.854 276.982 96.854C276.982 96.854 275.131 96.3243 274.565 95.1667C274 94.0091 274.721 92.2235 274.721 92.2235C274.721 92.2235 276.573 92.7532 277.138 93.9109Z" fill="#06CA98"/>
<path d="M292.003 99.2159C291.4 100.355 289.532 100.824 289.532 100.824C289.532 100.824 288.87 99.0156 289.472 97.877C290.075 96.7384 291.942 96.2693 291.942 96.2693C291.942 96.2693 292.605 98.0773 292.003 99.2159Z" fill="#06CA98"/>
<path d="M286.41 85.2328C286.092 86.6411 284.208 87.6955 284.208 87.6955C284.208 87.6955 282.962 85.9333 283.28 84.5249C283.599 83.1166 285.482 82.0622 285.482 82.0622C285.482 82.0622 286.729 83.8244 286.41 85.2328Z" fill="#04AC81"/>
<path d="M287.841 85.8802C286.796 87.2999 284.173 87.558 284.173 87.558C284.173 87.558 283.641 84.9767 284.687 83.557C285.732 82.1373 288.355 81.8792 288.355 81.8792C288.355 81.8792 288.887 84.4605 287.841 85.8802Z" fill="#06CA98"/>
<path d="M282.671 104.928C283.063 106.155 282.091 107.818 282.091 107.818C282.091 107.818 280.336 107.026 279.944 105.799C279.552 104.572 280.524 102.909 280.524 102.909C280.524 102.909 282.279 103.701 282.671 104.928Z" fill="#06CA98"/>
</g>
<path d="M354.5 170L354.5 157" stroke="black" stroke-width="2" stroke-linecap="round"/>
<path d="M353.42 128.958C359.123 138.644 354.291 156 354.291 156C348 156 336.327 153.122 330.162 142.652C323.998 132.182 324.206 120.629 330.629 116.847C337.051 113.066 347.255 118.488 353.42 128.958Z" fill="#1F7C65"/>
<path d="M378.42 142.652C372.255 153.122 360 156 354.291 156C354.291 156 349.459 138.644 355.163 128.958C361.327 118.488 371.531 113.066 377.954 116.847C384.376 120.629 384.585 132.182 378.42 142.652Z" fill="#1F7C65"/>
<path d="M368 118C368 130.15 361.732 140 354 140C346.268 140 340 130.15 340 118C340 105.85 346.268 96 354 96C361.732 96 368 105.85 368 118Z" fill="#1F7C65"/>
<path d="M337.376 125.162C336.608 126.891 333.92 127.766 333.92 127.766C333.92 127.766 332.768 125.185 333.535 123.457C334.303 121.728 336.991 120.853 336.991 120.853C336.991 120.853 338.143 123.434 337.376 125.162Z" fill="#04AC81"/>
<path d="M334.621 121.765C335.784 124.148 334.3 127.823 334.3 127.823C334.3 127.823 330.489 126.732 329.326 124.35C328.163 121.967 329.647 118.292 329.647 118.292C329.647 118.292 333.458 119.383 334.621 121.765Z" fill="#06CA98"/>
<path d="M367.95 124.998C367.116 126.574 364.531 127.223 364.531 127.223C364.531 127.223 363.614 124.721 364.448 123.145C365.282 121.569 367.867 120.92 367.867 120.92C367.867 120.92 368.783 123.422 367.95 124.998Z" fill="#06CA98"/>
<path d="M358.279 110.616C357.671 113.303 354.077 115.315 354.077 115.315C354.077 115.315 351.699 111.953 352.307 109.265C352.915 106.578 356.508 104.566 356.508 104.566C356.508 104.566 358.887 107.929 358.279 110.616Z" fill="#04AC81"/>
<path d="M361.01 111.851C359.015 114.56 354.01 115.053 354.01 115.053C354.01 115.053 352.995 110.127 354.99 107.418C356.985 104.709 361.99 104.217 361.99 104.217C361.99 104.217 363.005 109.142 361.01 111.851Z" fill="#06CA98"/>
<path d="M349.704 142.386C350.564 145.079 348.432 148.728 348.432 148.728C348.432 148.728 344.58 146.99 343.72 144.297C342.86 141.604 344.992 137.955 344.992 137.955C344.992 137.955 348.845 139.693 349.704 142.386Z" fill="#06CA98"/>
<defs>
<linearGradient id="paint0_linear_100_1355" x1="263.5" y1="-19" x2="213" y2="91.5" gradientUnits="userSpaceOnUse">
<stop stop-color="#252F3F"/>
<stop offset="1" stop-color="#1B232F"/>
</linearGradient>
<linearGradient id="paint1_linear_100_1355" x1="263.5" y1="-19" x2="213" y2="91.5" gradientUnits="userSpaceOnUse">
<stop stop-color="#252F3F"/>
<stop offset="1" stop-color="#1B232F"/>
</linearGradient>
<linearGradient id="paint2_linear_100_1355" x1="263.5" y1="-19" x2="213" y2="91.5" gradientUnits="userSpaceOnUse">
<stop stop-color="#252F3F"/>
<stop offset="1" stop-color="#1B232F"/>
</linearGradient>
<linearGradient id="paint3_linear_100_1355" x1="263.5" y1="-19" x2="213" y2="91.5" gradientUnits="userSpaceOnUse">
<stop stop-color="#252F3F"/>
<stop offset="1" stop-color="#1B232F"/>
</linearGradient>
<linearGradient id="paint4_linear_100_1355" x1="263.5" y1="-19" x2="213" y2="91.5" gradientUnits="userSpaceOnUse">
<stop stop-color="#252F3F"/>
<stop offset="1" stop-color="#1B232F"/>
</linearGradient>
<linearGradient id="paint5_linear_100_1355" x1="84" y1="27" x2="84" y2="117" gradientUnits="userSpaceOnUse">
<stop stop-color="#252F3F"/>
<stop offset="1" stop-color="#1B232F"/>
</linearGradient>
<linearGradient id="paint6_linear_100_1355" x1="84" y1="27" x2="84" y2="117" gradientUnits="userSpaceOnUse">
<stop stop-color="#252F3F"/>
<stop offset="1" stop-color="#1B232F"/>
</linearGradient>
<linearGradient id="paint7_linear_100_1355" x1="84" y1="27" x2="84" y2="117" gradientUnits="userSpaceOnUse">
<stop stop-color="#252F3F"/>
<stop offset="1" stop-color="#1B232F"/>
</linearGradient>
<linearGradient id="paint8_linear_100_1355" x1="84" y1="27" x2="84" y2="117" gradientUnits="userSpaceOnUse">
<stop stop-color="#252F3F"/>
<stop offset="1" stop-color="#1B232F"/>
</linearGradient>
<linearGradient id="paint9_linear_100_1355" x1="84" y1="27" x2="84" y2="117" gradientUnits="userSpaceOnUse">
<stop stop-color="#252F3F"/>
<stop offset="1" stop-color="#1B232F"/>
</linearGradient>
<linearGradient id="paint10_linear_100_1355" x1="325.878" y1="43.8563" x2="348.187" y2="131.047" gradientUnits="userSpaceOnUse">
<stop stop-color="#252F3F"/>
<stop offset="1" stop-color="#1B232F"/>
</linearGradient>
<linearGradient id="paint11_linear_100_1355" x1="325.878" y1="43.8563" x2="348.187" y2="131.047" gradientUnits="userSpaceOnUse">
<stop stop-color="#252F3F"/>
<stop offset="1" stop-color="#1B232F"/>
</linearGradient>
<linearGradient id="paint12_linear_100_1355" x1="325.878" y1="43.8563" x2="348.187" y2="131.047" gradientUnits="userSpaceOnUse">
<stop stop-color="#252F3F"/>
<stop offset="1" stop-color="#1B232F"/>
</linearGradient>
<linearGradient id="paint13_linear_100_1355" x1="325.878" y1="43.8563" x2="348.187" y2="131.047" gradientUnits="userSpaceOnUse">
<stop stop-color="#252F3F"/>
<stop offset="1" stop-color="#1B232F"/>
</linearGradient>
<linearGradient id="paint14_linear_100_1355" x1="325.878" y1="43.8563" x2="348.187" y2="131.047" gradientUnits="userSpaceOnUse">
<stop stop-color="#252F3F"/>
<stop offset="1" stop-color="#1B232F"/>
</linearGradient>
</defs>
</svg>
