<svg width="25" height="25" viewBox="0 0 25 25" fill="none" xmlns="http://www.w3.org/2000/svg">
<g clip-path="url(#clip0_100_1420)">
<path d="M10.7407 9.86702C11.2614 9.51907 11.8737 9.33334 12.5 9.33334C13.3398 9.33334 14.1453 9.66697 14.7392 10.2608C15.333 10.8547 15.6667 11.6602 15.6667 12.5C15.6667 13.1263 15.4809 13.7386 15.133 14.2593C14.785 14.7801 14.2905 15.186 13.7118 15.4256C13.1332 15.6653 12.4965 15.728 11.8822 15.6058C11.2679 15.4836 10.7037 15.182 10.2608 14.7392C9.81796 14.2963 9.51636 13.7321 9.39418 13.1178C9.27199 12.5035 9.3347 11.8668 9.57438 11.2882C9.81406 10.7095 10.2199 10.215 10.7407 9.86702ZM10.787 15.0637C11.294 15.4025 11.8902 15.5833 12.5 15.5833C13.3177 15.5833 14.102 15.2585 14.6802 14.6803C15.2585 14.102 15.5833 13.3178 15.5833 12.5C15.5833 11.8902 15.4025 11.2941 15.0637 10.787C14.7249 10.28 14.2433 9.88475 13.6799 9.65138C13.1165 9.41801 12.4966 9.35695 11.8985 9.47592C11.3004 9.59489 10.751 9.88855 10.3198 10.3198C9.88854 10.751 9.59488 11.3004 9.47591 11.8985C9.35694 12.4966 9.418 13.1165 9.65137 13.68C9.88474 14.2434 10.2799 14.7249 10.787 15.0637Z" fill="#00A67C" stroke="#00A67C" stroke-width="2"/>
<path d="M22.1812 14.4792L21.7188 14.2125C21.927 13.0796 21.927 11.9183 21.7188 10.7854L22.1812 10.5187C22.5369 10.3136 22.8487 10.0403 23.0987 9.71465C23.3488 9.38897 23.5323 9.01723 23.6387 8.62064C23.7451 8.22406 23.7723 7.8104 23.7189 7.40329C23.6654 6.99618 23.5323 6.60358 23.3271 6.24792C23.1219 5.89225 22.8487 5.58049 22.523 5.33042C22.1973 5.08035 21.8256 4.89688 21.429 4.79048C21.0324 4.68408 20.6187 4.65684 20.2116 4.7103C19.8045 4.76376 19.4119 4.89689 19.0562 5.10208L18.5927 5.36979C17.7172 4.62179 16.7111 4.04192 15.625 3.65937V3.125C15.625 2.2962 15.2958 1.50134 14.7097 0.915291C14.1237 0.32924 13.3288 0 12.5 0C11.6712 0 10.8763 0.32924 10.2903 0.915291C9.70424 1.50134 9.375 2.2962 9.375 3.125V3.65937C8.28894 4.0433 7.28317 4.62458 6.40833 5.37396L5.94271 5.10417C5.22441 4.68977 4.37092 4.57768 3.56998 4.79256C2.76904 5.00745 2.08627 5.53171 1.67187 6.25C1.25747 6.96829 1.14539 7.82179 1.36027 8.62273C1.57516 9.42366 2.09941 10.1064 2.81771 10.5208L3.28021 10.7875C3.07199 11.9204 3.07199 13.0817 3.28021 14.2146L2.81771 14.4812C2.09941 14.8957 1.57516 15.5784 1.36027 16.3794C1.14539 17.1803 1.25747 18.0338 1.67187 18.7521C2.08627 19.4704 2.76904 19.9946 3.56998 20.2095C4.37092 20.4244 5.22441 20.3123 5.94271 19.8979L6.40625 19.6302C7.28205 20.3783 8.28852 20.9582 9.375 21.3406V21.875C9.375 22.7038 9.70424 23.4987 10.2903 24.0847C10.8763 24.6708 11.6712 25 12.5 25C13.3288 25 14.1237 24.6708 14.7097 24.0847C15.2958 23.4987 15.625 22.7038 15.625 21.875V21.3406C16.7111 20.9567 17.7168 20.3754 18.5917 19.626L19.0573 19.8948C19.7756 20.3092 20.6291 20.4213 21.43 20.2064C22.231 19.9915 22.9137 19.4673 23.3281 18.749C23.7425 18.0307 23.8546 17.1772 23.6397 16.3762C23.4248 15.5753 22.9006 14.8925 22.1823 14.4781L22.1812 14.4792ZM19.5271 10.5458C19.8798 11.824 19.8798 13.1739 19.5271 14.4521C19.4655 14.6746 19.4795 14.9112 19.567 15.1248C19.6545 15.3384 19.8105 15.5169 20.0104 15.6323L21.1396 16.2844C21.379 16.4225 21.5537 16.6501 21.6253 16.917C21.6969 17.184 21.6595 17.4684 21.5214 17.7078C21.3832 17.9472 21.1556 18.1219 20.8887 18.1935C20.6218 18.2651 20.3373 18.2277 20.0979 18.0896L18.9667 17.4354C18.7666 17.3195 18.5336 17.2735 18.3044 17.3046C18.0753 17.3357 17.863 17.4422 17.701 17.6073C16.7739 18.5538 15.6058 19.2291 14.3229 19.5604C14.099 19.618 13.9006 19.7484 13.759 19.9312C13.6173 20.1139 13.5405 20.3386 13.5406 20.5698V21.875C13.5406 22.1513 13.4309 22.4162 13.2355 22.6116C13.0402 22.8069 12.7752 22.9167 12.499 22.9167C12.2227 22.9167 11.9577 22.8069 11.7624 22.6116C11.567 22.4162 11.4573 22.1513 11.4573 21.875V20.5708C11.4574 20.3396 11.3806 20.115 11.239 19.9322C11.0973 19.7495 10.8989 19.619 10.675 19.5615C9.39203 19.2288 8.2243 18.552 7.29792 17.6042C7.13596 17.4391 6.92368 17.3326 6.69454 17.3015C6.46539 17.2704 6.2324 17.3164 6.03229 17.4323L4.90312 18.0854C4.78461 18.1549 4.65353 18.2002 4.51742 18.2189C4.38131 18.2375 4.24287 18.229 4.11005 18.1939C3.97724 18.1587 3.85269 18.0977 3.74356 18.0143C3.63444 17.9308 3.54289 17.8266 3.4742 17.7076C3.40551 17.5887 3.36104 17.4573 3.34333 17.3211C3.32562 17.1848 3.33504 17.0464 3.37103 16.9139C3.40702 16.7813 3.46889 16.6571 3.55305 16.5486C3.63722 16.44 3.74203 16.3491 3.86146 16.2812L4.99062 15.6292C5.19057 15.5138 5.34653 15.3353 5.43402 15.1217C5.5215 14.9081 5.53555 14.6714 5.47396 14.449C5.1212 13.1708 5.1212 11.8209 5.47396 10.5427C5.53444 10.3207 5.51972 10.0849 5.4321 9.87218C5.34447 9.65943 5.18887 9.48167 4.98958 9.36667L3.86042 8.71458C3.62103 8.57645 3.44632 8.34888 3.37473 8.08193C3.30313 7.81499 3.34051 7.53053 3.47864 7.29115C3.61678 7.05176 3.84435 6.87705 4.1113 6.80546C4.37824 6.73386 4.6627 6.77124 4.90208 6.90937L6.03333 7.56354C6.23289 7.6797 6.4654 7.72626 6.6943 7.6959C6.9232 7.66555 7.13553 7.55999 7.29792 7.39583C8.22509 6.44932 9.39315 5.77398 10.676 5.44271C10.9007 5.38496 11.0996 5.25391 11.2413 5.07031C11.383 4.88672 11.4594 4.66109 11.4583 4.42917V3.125C11.4583 2.84873 11.5681 2.58378 11.7634 2.38843C11.9588 2.19308 12.2237 2.08333 12.5 2.08333C12.7763 2.08333 13.0412 2.19308 13.2366 2.38843C13.4319 2.58378 13.5417 2.84873 13.5417 3.125V4.42917C13.5416 4.66037 13.6184 4.88505 13.76 5.06779C13.9016 5.25054 14.1 5.38097 14.324 5.43854C15.6073 5.77099 16.7754 6.4478 17.7021 7.39583C17.864 7.5609 18.0763 7.66739 18.3055 7.69851C18.5346 7.72963 18.7676 7.68361 18.9677 7.56771L20.0969 6.91458C20.2154 6.84511 20.3465 6.79976 20.4826 6.78115C20.6187 6.76254 20.7571 6.77103 20.8899 6.80615C21.0228 6.84126 21.1473 6.9023 21.2564 6.98574C21.3656 7.06919 21.4571 7.1734 21.5258 7.29237C21.5945 7.41134 21.639 7.54272 21.6567 7.67895C21.6744 7.81518 21.665 7.95356 21.629 8.08614C21.593 8.21871 21.5311 8.34286 21.4469 8.45143C21.3628 8.56 21.258 8.65085 21.1385 8.71875L20.0094 9.37083C19.8105 9.48615 19.6553 9.66404 19.5681 9.87676C19.4808 10.0895 19.4664 10.3251 19.5271 10.5469V10.5458Z" fill="#00A67C"/>
</g>
<defs>
<clipPath id="clip0_100_1420">
<rect width="25" height="25" fill="white"/>
</clipPath>
</defs>
</svg>
