<svg width="104" height="34" viewBox="0 0 104 34" fill="none" xmlns="http://www.w3.org/2000/svg">
<rect x="1.25" y="1.25" width="101.5" height="31.5" rx="15.75" stroke="black" stroke-opacity="0.6" stroke-width="1.5"/>
<path d="M1 16H103C103 25.9411 94.9411 34 85 34H19C9.05887 34 1 25.9411 1 16Z" fill="black" fill-opacity="0.1"/>
<path d="M8 29H96C96 30.6569 94.6569 32 93 32H11C9.34315 32 8 30.6569 8 29Z" fill="black" fill-opacity="0.3"/>
<mask id="path-4-outside-1_27_550" maskUnits="userSpaceOnUse" x="20" y="9" width="63" height="14" fill="black">
<rect fill="white" x="20" y="9" width="63" height="14"/>
<path d="M25.522 21.154C24.7473 21.154 24.0147 21.056 23.324 20.86C22.6427 20.664 22.0733 20.398 21.616 20.062L22.246 18.354C22.6847 18.662 23.184 18.9047 23.744 19.082C24.3133 19.2593 24.906 19.348 25.522 19.348C26.194 19.348 26.6747 19.2453 26.964 19.04C27.2627 18.8253 27.412 18.5593 27.412 18.242C27.412 17.9713 27.3093 17.7567 27.104 17.598C26.8987 17.4393 26.5393 17.304 26.026 17.192L24.444 16.856C22.68 16.4827 21.798 15.568 21.798 14.112C21.798 13.4867 21.966 12.9407 22.302 12.474C22.638 11.998 23.1047 11.6293 23.702 11.368C24.3087 11.1067 25.0087 10.976 25.802 10.976C26.4833 10.976 27.1227 11.074 27.72 11.27C28.3173 11.466 28.812 11.7413 29.204 12.096L28.574 13.692C27.8087 13.0853 26.88 12.782 25.788 12.782C25.2 12.782 24.7427 12.8987 24.416 13.132C24.0987 13.356 23.94 13.65 23.94 14.014C23.94 14.2847 24.038 14.504 24.234 14.672C24.43 14.84 24.7707 14.9753 25.256 15.078L26.838 15.414C28.6487 15.806 29.554 16.6927 29.554 18.074C29.554 18.69 29.386 19.2313 29.05 19.698C28.7233 20.1553 28.2567 20.5147 27.65 20.776C27.0527 21.028 26.3433 21.154 25.522 21.154ZM30.7808 21V11.13H32.8948V16.968H32.9228L35.4568 14.126H37.9628L35.0508 17.416L38.1028 21H35.5548L32.9228 18.032H32.8948V21H30.7808ZM38.5034 12.796V10.822H40.7854V12.796H38.5034ZM38.5874 21V14.126H40.7014V21H38.5874ZM44.8955 21.154C44.0088 21.154 43.3602 20.9253 42.9495 20.468C42.5388 20.0013 42.3335 19.3107 42.3335 18.396V11.13H44.4475V18.312C44.4475 19.0587 44.7788 19.432 45.4415 19.432C45.5442 19.432 45.6422 19.4273 45.7355 19.418C45.8382 19.4087 45.9362 19.39 46.0295 19.362L46.0015 21C45.6468 21.1027 45.2782 21.154 44.8955 21.154ZM49.5576 21.154C48.6709 21.154 48.0223 20.9253 47.6116 20.468C47.2009 20.0013 46.9956 19.3107 46.9956 18.396V11.13H49.1096V18.312C49.1096 19.0587 49.4409 19.432 50.1036 19.432C50.2063 19.432 50.3043 19.4273 50.3976 19.418C50.5003 19.4087 50.5983 19.39 50.6916 19.362L50.6636 21C50.3089 21.1027 49.9403 21.154 49.5576 21.154ZM58.9282 21.154C56.9962 21.154 56.0302 20.216 56.0302 18.34V15.708H54.7282V14.126H56.0302V12.11H58.1442V14.126H60.1742V15.708H58.1442V18.256C58.1442 18.648 58.2329 18.942 58.4102 19.138C58.5969 19.334 58.8909 19.432 59.2922 19.432C59.4135 19.432 59.5395 19.418 59.6702 19.39C59.8102 19.362 59.9595 19.3247 60.1182 19.278L60.4262 20.818C60.2302 20.9207 59.9969 21 59.7262 21.056C59.4555 21.1213 59.1895 21.154 58.9282 21.154ZM61.2143 21V14.126H63.2863V15.316C63.613 14.5133 64.313 14.07 65.3863 13.986L66.0023 13.944L66.1283 15.722L64.9383 15.848C63.893 15.9507 63.3703 16.4827 63.3703 17.444V21H61.2143ZM70.4308 21.154C69.6188 21.154 68.9188 21.0093 68.3308 20.72C67.7522 20.4213 67.3042 20.006 66.9868 19.474C66.6788 18.9327 66.5248 18.298 66.5248 17.57C66.5248 16.8607 66.6742 16.24 66.9728 15.708C67.2808 15.1667 67.6962 14.7467 68.2188 14.448C68.7508 14.14 69.3622 13.986 70.0528 13.986C71.0515 13.986 71.8448 14.3033 72.4328 14.938C73.0208 15.5633 73.3148 16.4127 73.3148 17.486V18.018H68.5408C68.6155 18.5593 68.8115 18.956 69.1288 19.208C69.4555 19.4507 69.9035 19.572 70.4728 19.572C70.8462 19.572 71.2242 19.516 71.6068 19.404C71.9895 19.292 72.3348 19.1193 72.6428 18.886L73.2028 20.3C72.8575 20.5613 72.4328 20.7713 71.9288 20.93C71.4342 21.0793 70.9348 21.154 70.4308 21.154ZM70.1368 15.386C69.6888 15.386 69.3248 15.5213 69.0448 15.792C68.7742 16.0627 68.6062 16.4407 68.5408 16.926H71.5648C71.5088 15.8993 71.0328 15.386 70.1368 15.386ZM78.1144 21.154C77.3024 21.154 76.6024 21.0093 76.0144 20.72C75.4358 20.4213 74.9878 20.006 74.6704 19.474C74.3624 18.9327 74.2084 18.298 74.2084 17.57C74.2084 16.8607 74.3578 16.24 74.6564 15.708C74.9644 15.1667 75.3798 14.7467 75.9024 14.448C76.4344 14.14 77.0458 13.986 77.7364 13.986C78.7351 13.986 79.5284 14.3033 80.1164 14.938C80.7044 15.5633 80.9984 16.4127 80.9984 17.486V18.018H76.2244C76.2991 18.5593 76.4951 18.956 76.8124 19.208C77.1391 19.4507 77.5871 19.572 78.1564 19.572C78.5298 19.572 78.9078 19.516 79.2904 19.404C79.6731 19.292 80.0184 19.1193 80.3264 18.886L80.8864 20.3C80.5411 20.5613 80.1164 20.7713 79.6124 20.93C79.1178 21.0793 78.6184 21.154 78.1144 21.154ZM77.8204 15.386C77.3724 15.386 77.0084 15.5213 76.7284 15.792C76.4578 16.0627 76.2898 16.4407 76.2244 16.926H79.2484C79.1924 15.8993 78.7164 15.386 77.8204 15.386Z"/>
</mask>
<path d="M25.522 21.154C24.7473 21.154 24.0147 21.056 23.324 20.86C22.6427 20.664 22.0733 20.398 21.616 20.062L22.246 18.354C22.6847 18.662 23.184 18.9047 23.744 19.082C24.3133 19.2593 24.906 19.348 25.522 19.348C26.194 19.348 26.6747 19.2453 26.964 19.04C27.2627 18.8253 27.412 18.5593 27.412 18.242C27.412 17.9713 27.3093 17.7567 27.104 17.598C26.8987 17.4393 26.5393 17.304 26.026 17.192L24.444 16.856C22.68 16.4827 21.798 15.568 21.798 14.112C21.798 13.4867 21.966 12.9407 22.302 12.474C22.638 11.998 23.1047 11.6293 23.702 11.368C24.3087 11.1067 25.0087 10.976 25.802 10.976C26.4833 10.976 27.1227 11.074 27.72 11.27C28.3173 11.466 28.812 11.7413 29.204 12.096L28.574 13.692C27.8087 13.0853 26.88 12.782 25.788 12.782C25.2 12.782 24.7427 12.8987 24.416 13.132C24.0987 13.356 23.94 13.65 23.94 14.014C23.94 14.2847 24.038 14.504 24.234 14.672C24.43 14.84 24.7707 14.9753 25.256 15.078L26.838 15.414C28.6487 15.806 29.554 16.6927 29.554 18.074C29.554 18.69 29.386 19.2313 29.05 19.698C28.7233 20.1553 28.2567 20.5147 27.65 20.776C27.0527 21.028 26.3433 21.154 25.522 21.154ZM30.7808 21V11.13H32.8948V16.968H32.9228L35.4568 14.126H37.9628L35.0508 17.416L38.1028 21H35.5548L32.9228 18.032H32.8948V21H30.7808ZM38.5034 12.796V10.822H40.7854V12.796H38.5034ZM38.5874 21V14.126H40.7014V21H38.5874ZM44.8955 21.154C44.0088 21.154 43.3602 20.9253 42.9495 20.468C42.5388 20.0013 42.3335 19.3107 42.3335 18.396V11.13H44.4475V18.312C44.4475 19.0587 44.7788 19.432 45.4415 19.432C45.5442 19.432 45.6422 19.4273 45.7355 19.418C45.8382 19.4087 45.9362 19.39 46.0295 19.362L46.0015 21C45.6468 21.1027 45.2782 21.154 44.8955 21.154ZM49.5576 21.154C48.6709 21.154 48.0223 20.9253 47.6116 20.468C47.2009 20.0013 46.9956 19.3107 46.9956 18.396V11.13H49.1096V18.312C49.1096 19.0587 49.4409 19.432 50.1036 19.432C50.2063 19.432 50.3043 19.4273 50.3976 19.418C50.5003 19.4087 50.5983 19.39 50.6916 19.362L50.6636 21C50.3089 21.1027 49.9403 21.154 49.5576 21.154ZM58.9282 21.154C56.9962 21.154 56.0302 20.216 56.0302 18.34V15.708H54.7282V14.126H56.0302V12.11H58.1442V14.126H60.1742V15.708H58.1442V18.256C58.1442 18.648 58.2329 18.942 58.4102 19.138C58.5969 19.334 58.8909 19.432 59.2922 19.432C59.4135 19.432 59.5395 19.418 59.6702 19.39C59.8102 19.362 59.9595 19.3247 60.1182 19.278L60.4262 20.818C60.2302 20.9207 59.9969 21 59.7262 21.056C59.4555 21.1213 59.1895 21.154 58.9282 21.154ZM61.2143 21V14.126H63.2863V15.316C63.613 14.5133 64.313 14.07 65.3863 13.986L66.0023 13.944L66.1283 15.722L64.9383 15.848C63.893 15.9507 63.3703 16.4827 63.3703 17.444V21H61.2143ZM70.4308 21.154C69.6188 21.154 68.9188 21.0093 68.3308 20.72C67.7522 20.4213 67.3042 20.006 66.9868 19.474C66.6788 18.9327 66.5248 18.298 66.5248 17.57C66.5248 16.8607 66.6742 16.24 66.9728 15.708C67.2808 15.1667 67.6962 14.7467 68.2188 14.448C68.7508 14.14 69.3622 13.986 70.0528 13.986C71.0515 13.986 71.8448 14.3033 72.4328 14.938C73.0208 15.5633 73.3148 16.4127 73.3148 17.486V18.018H68.5408C68.6155 18.5593 68.8115 18.956 69.1288 19.208C69.4555 19.4507 69.9035 19.572 70.4728 19.572C70.8462 19.572 71.2242 19.516 71.6068 19.404C71.9895 19.292 72.3348 19.1193 72.6428 18.886L73.2028 20.3C72.8575 20.5613 72.4328 20.7713 71.9288 20.93C71.4342 21.0793 70.9348 21.154 70.4308 21.154ZM70.1368 15.386C69.6888 15.386 69.3248 15.5213 69.0448 15.792C68.7742 16.0627 68.6062 16.4407 68.5408 16.926H71.5648C71.5088 15.8993 71.0328 15.386 70.1368 15.386ZM78.1144 21.154C77.3024 21.154 76.6024 21.0093 76.0144 20.72C75.4358 20.4213 74.9878 20.006 74.6704 19.474C74.3624 18.9327 74.2084 18.298 74.2084 17.57C74.2084 16.8607 74.3578 16.24 74.6564 15.708C74.9644 15.1667 75.3798 14.7467 75.9024 14.448C76.4344 14.14 77.0458 13.986 77.7364 13.986C78.7351 13.986 79.5284 14.3033 80.1164 14.938C80.7044 15.5633 80.9984 16.4127 80.9984 17.486V18.018H76.2244C76.2991 18.5593 76.4951 18.956 76.8124 19.208C77.1391 19.4507 77.5871 19.572 78.1564 19.572C78.5298 19.572 78.9078 19.516 79.2904 19.404C79.6731 19.292 80.0184 19.1193 80.3264 18.886L80.8864 20.3C80.5411 20.5613 80.1164 20.7713 79.6124 20.93C79.1178 21.0793 78.6184 21.154 78.1144 21.154ZM77.8204 15.386C77.3724 15.386 77.0084 15.5213 76.7284 15.792C76.4578 16.0627 76.2898 16.4407 76.2244 16.926H79.2484C79.1924 15.8993 78.7164 15.386 77.8204 15.386Z" fill="white"/>
<path d="M23.324 20.86L23.0475 21.821L23.051 21.822L23.324 20.86ZM21.616 20.062L20.6778 19.7159L20.4173 20.4222L21.0239 20.8679L21.616 20.062ZM22.246 18.354L22.8206 17.5356L21.7574 16.789L21.3078 18.0079L22.246 18.354ZM23.744 19.082L23.4421 20.0354L23.4466 20.0368L23.744 19.082ZM26.964 19.04L27.5428 19.8555L27.5476 19.852L26.964 19.04ZM27.104 17.598L26.4926 18.3893L26.4926 18.3893L27.104 17.598ZM26.026 17.192L26.2392 16.215L26.2338 16.2138L26.026 17.192ZM24.444 16.856L24.6518 15.8778L24.6511 15.8777L24.444 16.856ZM22.302 12.474L23.1136 13.0583L23.119 13.0507L22.302 12.474ZM23.702 11.368L23.3064 10.4496L23.3012 10.4518L23.702 11.368ZM27.72 11.27L28.0318 10.3198L28.0318 10.3198L27.72 11.27ZM29.204 12.096L30.1342 12.4632L30.3884 11.8191L29.8749 11.3545L29.204 12.096ZM28.574 13.692L27.9528 14.4757L29.0092 15.313L29.5042 14.0592L28.574 13.692ZM24.416 13.132L24.9927 13.949L24.9972 13.9457L24.416 13.132ZM25.256 15.078L25.4638 14.0998L25.463 14.0997L25.256 15.078ZM26.838 15.414L27.0496 14.4366L27.0458 14.4358L26.838 15.414ZM29.05 19.698L28.2385 19.1137L28.2363 19.1168L29.05 19.698ZM27.65 20.776L28.0387 21.6974L28.0456 21.6944L27.65 20.776ZM25.522 20.154C24.8324 20.154 24.1921 20.0669 23.597 19.898L23.051 21.822C23.8372 22.0451 24.6623 22.154 25.522 22.154V20.154ZM23.6005 19.899C23.0055 19.7278 22.5498 19.5072 22.2081 19.2561L21.0239 20.8679C21.5969 21.2888 22.2799 21.6002 23.0475 21.821L23.6005 19.899ZM22.5542 20.4081L23.1842 18.7001L21.3078 18.0079L20.6778 19.7159L22.5542 20.4081ZM21.6714 19.1724C22.2011 19.5444 22.7941 19.8301 23.4421 20.0353L24.0459 18.1287C23.5739 17.9792 23.1682 17.7796 22.8206 17.5356L21.6714 19.1724ZM23.4466 20.0368C24.1154 20.2451 24.8085 20.348 25.522 20.348V18.348C25.0035 18.348 24.5113 18.2736 24.0414 18.1272L23.4466 20.0368ZM25.522 20.348C26.2431 20.348 26.9897 20.248 27.5427 19.8555L26.3853 18.2245C26.3855 18.2243 26.3328 18.2599 26.1776 18.2931C26.0258 18.3255 25.8115 18.348 25.522 18.348V20.348ZM27.5476 19.852C28.0601 19.4837 28.412 18.9357 28.412 18.242H26.412C26.412 18.2422 26.4121 18.2347 26.4152 18.2224C26.4185 18.2098 26.4233 18.1984 26.428 18.19C26.4325 18.1819 26.4343 18.1813 26.4285 18.1876C26.4223 18.1942 26.4078 18.2083 26.3804 18.228L27.5476 19.852ZM28.412 18.242C28.412 17.6772 28.1779 17.164 27.7154 16.8067L26.4926 18.3893C26.4829 18.3819 26.4549 18.3556 26.4329 18.3095C26.4114 18.2647 26.412 18.2354 26.412 18.242H28.412ZM27.7154 16.8067C27.3244 16.5045 26.7786 16.3327 26.2392 16.215L25.8128 18.169C26.0381 18.2182 26.2068 18.2677 26.328 18.3133C26.4548 18.3611 26.4965 18.3923 26.4926 18.3893L27.7154 16.8067ZM26.2338 16.2138L24.6518 15.8778L24.2362 17.8342L25.8182 18.1702L26.2338 16.2138ZM24.6511 15.8777C23.8859 15.7157 23.4347 15.4607 23.1793 15.1959C22.9445 14.9523 22.798 14.6219 22.798 14.112H20.798C20.798 15.0581 21.0925 15.913 21.7397 16.5841C22.3663 17.2339 23.2381 17.6229 24.2369 17.8343L24.6511 15.8777ZM22.798 14.112C22.798 13.6771 22.9109 13.3397 23.1135 13.0583L21.4905 11.8897C21.0211 12.5416 20.798 13.2963 20.798 14.112H22.798ZM23.119 13.0507C23.3377 12.7409 23.6521 12.4813 24.1028 12.2842L23.3012 10.4518C22.5572 10.7773 21.9383 11.2551 21.485 11.8973L23.119 13.0507ZM24.0976 12.2864C24.5569 12.0886 25.1179 11.976 25.802 11.976V9.976C24.8994 9.976 24.0605 10.1247 23.3064 10.4496L24.0976 12.2864ZM25.802 11.976C26.3863 11.976 26.9196 12.0598 27.4082 12.2202L28.0318 10.3198C27.3257 10.0882 26.5804 9.976 25.802 9.976V11.976ZM27.4082 12.2202C27.8974 12.3807 28.2626 12.5928 28.5331 12.8375L29.8749 11.3545C29.3614 10.8898 28.7373 10.5513 28.0318 10.3198L27.4082 12.2202ZM28.2738 11.7288L27.6438 13.3248L29.5042 14.0592L30.1342 12.4632L28.2738 11.7288ZM29.1952 12.9083C28.2322 12.145 27.0773 11.782 25.788 11.782V13.782C26.6827 13.782 27.3851 14.0257 27.9528 14.4757L29.1952 12.9083ZM25.788 11.782C25.084 11.782 24.3933 11.9193 23.8348 12.3183L24.9972 13.9457C25.0921 13.878 25.316 13.782 25.788 13.782V11.782ZM23.8393 12.315C23.2775 12.7116 22.94 13.3002 22.94 14.014H24.94C24.94 14.0049 24.9405 13.9985 24.9409 13.9945C24.9414 13.9906 24.9418 13.9887 24.9419 13.9885C24.9419 13.9884 24.9417 13.9893 24.9411 13.9909C24.9405 13.9925 24.9397 13.9941 24.939 13.9954C24.9373 13.9986 24.9377 13.9967 24.9441 13.9897C24.9508 13.9824 24.9655 13.9682 24.9927 13.949L23.8393 12.315ZM22.94 14.014C22.94 14.5604 23.1536 15.063 23.5832 15.4313L24.8848 13.9127C24.8864 13.9141 24.8932 13.9202 24.9019 13.9318C24.9108 13.9435 24.9194 13.9578 24.9265 13.9736C24.9417 14.0076 24.94 14.0266 24.94 14.014H22.94ZM23.5832 15.4313C23.9772 15.7689 24.5249 15.9455 25.049 16.0563L25.463 14.0997C25.2577 14.0562 25.1087 14.0111 25.0057 13.9701C24.8985 13.9276 24.8718 13.9016 24.8848 13.9127L23.5832 15.4313ZM25.0482 16.0562L26.6302 16.3922L27.0458 14.4358L25.4638 14.0998L25.0482 16.0562ZM26.6264 16.3914C27.4277 16.5648 27.9059 16.8236 28.1753 17.0874C28.4176 17.3247 28.554 17.6254 28.554 18.074H30.554C30.554 17.1413 30.2377 16.3079 29.5747 15.6586C28.9388 15.0358 28.059 14.6552 27.0496 14.4366L26.6264 16.3914ZM28.554 18.074C28.554 18.4961 28.443 18.8296 28.2385 19.1137L29.8615 20.2823C30.329 19.6331 30.554 18.8839 30.554 18.074H28.554ZM28.2363 19.1168C28.033 19.4014 27.7232 19.6556 27.2544 19.8576L28.0456 21.6944C28.7901 21.3737 29.4137 20.9093 29.8637 20.2792L28.2363 19.1168ZM27.2613 19.8546C26.8151 20.0429 26.2441 20.154 25.522 20.154V22.154C26.4426 22.154 27.2903 22.0131 28.0387 21.6974L27.2613 19.8546ZM30.7808 21H29.7808V22H30.7808V21ZM30.7808 11.13V10.13H29.7808V11.13H30.7808ZM32.8947 11.13H33.8947V10.13H32.8947V11.13ZM32.8947 16.968H31.8947V17.968H32.8947V16.968ZM32.9228 16.968V17.968H33.3709L33.6691 17.6335L32.9228 16.968ZM35.4567 14.126V13.126H35.0086L34.7104 13.4605L35.4567 14.126ZM37.9628 14.126L38.7116 14.7888L40.1833 13.126H37.9628V14.126ZM35.0507 17.416L34.3019 16.7532L33.7265 17.4033L34.2894 18.0643L35.0507 17.416ZM38.1028 21V22H40.2678L38.8641 20.3517L38.1028 21ZM35.5548 21L34.8066 21.6635L35.105 22H35.5548V21ZM32.9228 18.032L33.6709 17.3685L33.3725 17.032H32.9228V18.032ZM32.8947 18.032V17.032H31.8947V18.032H32.8947ZM32.8947 21V22H33.8947V21H32.8947ZM31.7808 21V11.13H29.7808V21H31.7808ZM30.7808 12.13H32.8947V10.13H30.7808V12.13ZM31.8947 11.13V16.968H33.8947V11.13H31.8947ZM32.8947 17.968H32.9228V15.968H32.8947V17.968ZM33.6691 17.6335L36.2031 14.7915L34.7104 13.4605L32.1764 16.3025L33.6691 17.6335ZM35.4567 15.126H37.9628V13.126H35.4567V15.126ZM37.2139 13.4632L34.3019 16.7532L35.7996 18.0788L38.7116 14.7888L37.2139 13.4632ZM34.2894 18.0643L37.3414 21.6483L38.8641 20.3517L35.8121 16.7677L34.2894 18.0643ZM38.1028 20H35.5548V22H38.1028V20ZM36.3029 20.3365L33.6709 17.3685L32.1746 18.6955L34.8066 21.6635L36.3029 20.3365ZM32.9228 17.032H32.8947V19.032H32.9228V17.032ZM31.8947 18.032V21H33.8947V18.032H31.8947ZM32.8947 20H30.7808V22H32.8947V20ZM38.5034 12.796H37.5034V13.796H38.5034V12.796ZM38.5034 10.822V9.822H37.5034V10.822H38.5034ZM40.7854 10.822H41.7854V9.822H40.7854V10.822ZM40.7854 12.796V13.796H41.7854V12.796H40.7854ZM38.5874 21H37.5874V22H38.5874V21ZM38.5874 14.126V13.126H37.5874V14.126H38.5874ZM40.7014 14.126H41.7014V13.126H40.7014V14.126ZM40.7014 21V22H41.7014V21H40.7014ZM39.5034 12.796V10.822H37.5034V12.796H39.5034ZM38.5034 11.822H40.7854V9.822H38.5034V11.822ZM39.7854 10.822V12.796H41.7854V10.822H39.7854ZM40.7854 11.796H38.5034V13.796H40.7854V11.796ZM39.5874 21V14.126H37.5874V21H39.5874ZM38.5874 15.126H40.7014V13.126H38.5874V15.126ZM39.7014 14.126V21H41.7014V14.126H39.7014ZM40.7014 20H38.5874V22H40.7014V20ZM42.9495 20.468L42.1987 21.1287L42.2054 21.1361L42.9495 20.468ZM42.3335 11.13V10.13H41.3335V11.13H42.3335ZM44.4475 11.13H45.4475V10.13H44.4475V11.13ZM45.7355 19.418L45.6449 18.4221L45.636 18.423L45.7355 19.418ZM46.0295 19.362L47.0293 19.3791L47.0527 18.011L45.7421 18.4042L46.0295 19.362ZM46.0015 21L46.2795 21.9606L46.9887 21.7553L47.0013 21.0171L46.0015 21ZM44.8955 20.154C44.1645 20.154 43.8431 19.9664 43.6935 19.7999L42.2054 21.1361C42.8772 21.8843 43.8532 22.154 44.8955 22.154V20.154ZM43.7002 19.8074C43.5113 19.5928 43.3335 19.1795 43.3335 18.396H41.3335C41.3335 19.4418 41.5663 20.4099 42.1988 21.1286L43.7002 19.8074ZM43.3335 18.396V11.13H41.3335V18.396H43.3335ZM42.3335 12.13H44.4475V10.13H42.3335V12.13ZM43.4475 11.13V18.312H45.4475V11.13H43.4475ZM43.4475 18.312C43.4475 18.812 43.5558 19.3738 43.9481 19.8158C44.3605 20.2805 44.923 20.432 45.4415 20.432V18.432C45.3672 18.432 45.346 18.4213 45.3582 18.4259C45.365 18.4284 45.3787 18.4345 45.3958 18.4461C45.4132 18.4578 45.4298 18.4723 45.4439 18.4882C45.4736 18.5217 45.4754 18.5414 45.4685 18.5183C45.4607 18.4919 45.4475 18.4279 45.4475 18.312H43.4475ZM45.4415 20.432C45.5743 20.432 45.7057 20.426 45.835 20.413L45.636 18.423C45.5786 18.4287 45.514 18.432 45.4415 18.432V20.432ZM45.826 20.4139C45.9916 20.3988 46.1557 20.3682 46.3168 20.3198L45.7421 18.4042C45.7166 18.4118 45.6847 18.4185 45.6449 18.4221L45.826 20.4139ZM45.0296 19.3449L45.0016 20.9829L47.0013 21.0171L47.0293 19.3791L45.0296 19.3449ZM45.7234 20.0394C45.4624 20.115 45.1875 20.154 44.8955 20.154V22.154C45.3688 22.154 45.8313 22.0903 46.2795 21.9606L45.7234 20.0394ZM47.6116 20.468L46.8608 21.1287L46.8675 21.1361L47.6116 20.468ZM46.9956 11.13V10.13H45.9956V11.13H46.9956ZM49.1096 11.13H50.1096V10.13H49.1096V11.13ZM50.3976 19.418L50.3071 18.4221L50.2981 18.423L50.3976 19.418ZM50.6916 19.362L51.6914 19.3791L51.7148 18.011L50.4042 18.4042L50.6916 19.362ZM50.6636 21L50.9417 21.9606L51.6508 21.7553L51.6634 21.0171L50.6636 21ZM49.5576 20.154C48.8266 20.154 48.5052 19.9664 48.3556 19.7999L46.8675 21.1361C47.5393 21.8843 48.5153 22.154 49.5576 22.154V20.154ZM48.3623 19.8074C48.1735 19.5928 47.9956 19.1795 47.9956 18.396H45.9956C45.9956 19.4418 46.2284 20.4099 46.8609 21.1286L48.3623 19.8074ZM47.9956 18.396V11.13H45.9956V18.396H47.9956ZM46.9956 12.13H49.1096V10.13H46.9956V12.13ZM48.1096 11.13V18.312H50.1096V11.13H48.1096ZM48.1096 18.312C48.1096 18.812 48.218 19.3738 48.6102 19.8158C49.0226 20.2805 49.5851 20.432 50.1036 20.432V18.432C50.0294 18.432 50.0081 18.4213 50.0203 18.4259C50.0271 18.4284 50.0408 18.4345 50.0579 18.4461C50.0753 18.4578 50.0919 18.4723 50.106 18.4882C50.1357 18.5217 50.1375 18.5414 50.1306 18.5183C50.1228 18.4919 50.1096 18.4279 50.1096 18.312H48.1096ZM50.1036 20.432C50.2364 20.432 50.3678 20.426 50.4971 20.413L50.2981 18.423C50.2407 18.4287 50.1761 18.432 50.1036 18.432V20.432ZM50.4881 20.4139C50.6537 20.3988 50.8179 20.3682 50.9789 20.3198L50.4042 18.4042C50.3787 18.4118 50.3468 18.4185 50.3071 18.4221L50.4881 20.4139ZM49.6917 19.3449L49.6637 20.9829L51.6634 21.0171L51.6914 19.3791L49.6917 19.3449ZM50.3855 20.0394C50.1245 20.115 49.8496 20.154 49.5576 20.154V22.154C50.0309 22.154 50.4934 22.0903 50.9417 21.9606L50.3855 20.0394ZM56.0302 15.708H57.0302V14.708H56.0302V15.708ZM54.7282 15.708H53.7282V16.708H54.7282V15.708ZM54.7282 14.126V13.126H53.7282V14.126H54.7282ZM56.0302 14.126V15.126H57.0302V14.126H56.0302ZM56.0302 12.11V11.11H55.0302V12.11H56.0302ZM58.1442 12.11H59.1442V11.11H58.1442V12.11ZM58.1442 14.126H57.1442V15.126H58.1442V14.126ZM60.1742 14.126H61.1742V13.126H60.1742V14.126ZM60.1742 15.708V16.708H61.1742V15.708H60.1742ZM58.1442 15.708V14.708H57.1442V15.708H58.1442ZM58.4102 19.138L57.6687 19.8089L57.6772 19.8184L57.6861 19.8277L58.4102 19.138ZM59.6702 19.39L59.4741 18.4093L59.4607 18.4122L59.6702 19.39ZM60.1182 19.278L61.0988 19.0819L60.8844 18.0103L59.836 18.3186L60.1182 19.278ZM60.4262 20.818L60.8902 21.7038L61.5537 21.3563L61.4068 20.6219L60.4262 20.818ZM59.7262 21.056L59.5236 20.0767L59.5075 20.0801L59.4915 20.0839L59.7262 21.056ZM58.9282 20.154C58.1091 20.154 57.6798 19.9549 57.4513 19.7331C57.2283 19.5166 57.0302 19.1163 57.0302 18.34H55.0302C55.0302 19.4397 55.315 20.4464 56.0581 21.1679C56.7956 21.8841 57.8153 22.154 58.9282 22.154V20.154ZM57.0302 18.34V15.708H55.0302V18.34H57.0302ZM56.0302 14.708H54.7282V16.708H56.0302V14.708ZM55.7282 15.708V14.126H53.7282V15.708H55.7282ZM54.7282 15.126H56.0302V13.126H54.7282V15.126ZM57.0302 14.126V12.11H55.0302V14.126H57.0302ZM56.0302 13.11H58.1442V11.11H56.0302V13.11ZM57.1442 12.11V14.126H59.1442V12.11H57.1442ZM58.1442 15.126H60.1742V13.126H58.1442V15.126ZM59.1742 14.126V15.708H61.1742V14.126H59.1742ZM60.1742 14.708H58.1442V16.708H60.1742V14.708ZM57.1442 15.708V18.256H59.1442V15.708H57.1442ZM57.1442 18.256C57.1442 18.7788 57.2603 19.3576 57.6687 19.8089L59.1517 18.4671C59.1773 18.4953 59.1766 18.5098 59.1681 18.4818C59.1586 18.4501 59.1442 18.3798 59.1442 18.256H57.1442ZM57.6861 19.8277C58.1365 20.3006 58.7493 20.432 59.2922 20.432V18.432C59.169 18.432 59.1069 18.4165 59.0869 18.4098C59.0723 18.405 59.0995 18.4118 59.1343 18.4483L57.6861 19.8277ZM59.2922 20.432C59.4906 20.432 59.687 20.4091 59.8797 20.3678L59.4607 18.4122C59.392 18.4269 59.3364 18.432 59.2922 18.432V20.432ZM59.8663 20.3706C60.0394 20.336 60.2177 20.2911 60.4004 20.2374L59.836 18.3186C59.7014 18.3582 59.581 18.388 59.4741 18.4094L59.8663 20.3706ZM59.1376 19.4741L59.4456 21.0141L61.4068 20.6219L61.0988 19.0819L59.1376 19.4741ZM59.9622 19.9322C59.866 19.9825 59.7248 20.0351 59.5236 20.0767L59.9288 22.0353C60.2689 21.9649 60.5943 21.8588 60.8902 21.7038L59.9622 19.9322ZM59.4915 20.0839C59.2927 20.1319 59.1055 20.154 58.9282 20.154V22.154C59.2735 22.154 59.6183 22.1108 59.9608 22.0281L59.4915 20.0839ZM61.2143 21H60.2143V22H61.2143V21ZM61.2143 14.126V13.126H60.2143V14.126H61.2143ZM63.2863 14.126H64.2863V13.126H63.2863V14.126ZM63.2863 15.316H62.2863L64.2126 15.693L63.2863 15.316ZM65.3863 13.986L65.3183 12.9883L65.3083 12.989L65.3863 13.986ZM66.0023 13.944L66.9998 13.8733L66.9293 12.8785L65.9343 12.9463L66.0023 13.944ZM66.1283 15.722L66.2336 16.7164L67.1941 16.6147L67.1258 15.6513L66.1283 15.722ZM64.9383 15.848L65.0361 16.8432L65.0436 16.8424L64.9383 15.848ZM63.3703 21V22H64.3703V21H63.3703ZM62.2143 21V14.126H60.2143V21H62.2143ZM61.2143 15.126H63.2863V13.126H61.2143V15.126ZM62.2863 14.126V15.316H64.2863V14.126H62.2863ZM64.2126 15.693C64.3594 15.3322 64.6587 15.046 65.4644 14.983L65.3083 12.989C63.9673 13.094 62.8666 13.6945 62.3601 14.939L64.2126 15.693ZM65.4544 14.9837L66.0704 14.9417L65.9343 12.9463L65.3183 12.9883L65.4544 14.9837ZM65.0048 14.0147L65.1308 15.7927L67.1258 15.6513L66.9998 13.8733L65.0048 14.0147ZM66.0231 14.7276L64.833 14.8536L65.0436 16.8424L66.2336 16.7164L66.0231 14.7276ZM64.8406 14.8528C64.1786 14.9178 63.5306 15.133 63.049 15.6232C62.5552 16.1258 62.3703 16.7802 62.3703 17.444H64.3703C64.3703 17.1465 64.4469 17.0542 64.4757 17.0248C64.5168 16.983 64.6527 16.8809 65.0361 16.8432L64.8406 14.8528ZM62.3703 17.444V21H64.3703V17.444H62.3703ZM63.3703 20H61.2143V22H63.3703V20ZM68.3308 20.72L67.8722 21.6086L67.8807 21.613L67.8893 21.6173L68.3308 20.72ZM66.9868 19.474L66.1177 19.9685L66.1227 19.9775L66.128 19.9863L66.9868 19.474ZM66.9728 15.708L66.1036 15.2135L66.1008 15.2185L66.9728 15.708ZM68.2188 14.448L68.715 15.3163L68.7199 15.3134L68.2188 14.448ZM72.4328 14.938L71.6992 15.6176L71.7043 15.623L72.4328 14.938ZM73.3148 18.018V19.018H74.3148V18.018H73.3148ZM68.5408 18.018V17.018H67.3934L67.5502 18.1546L68.5408 18.018ZM69.1288 19.208L68.5069 19.9911L68.5196 20.0011L68.5325 20.0107L69.1288 19.208ZM71.6068 19.404L71.3259 18.4443H71.3259L71.6068 19.404ZM72.6428 18.886L73.5726 18.5178L73.088 17.2942L72.039 18.0889L72.6428 18.886ZM73.2028 20.3L73.8063 21.0974L74.4125 20.6386L74.1326 19.9318L73.2028 20.3ZM71.9288 20.93L72.2179 21.8874L72.2291 21.8838L71.9288 20.93ZM69.0448 15.792L68.3498 15.073L68.3437 15.0789L68.3377 15.0849L69.0448 15.792ZM68.5408 16.926L67.5498 16.7926L67.3972 17.926H68.5408V16.926ZM71.5648 16.926V17.926H72.6209L72.5633 16.8715L71.5648 16.926ZM70.4308 20.154C69.7361 20.154 69.1941 20.0303 68.7723 19.8227L67.8893 21.6173C68.6436 21.9884 69.5016 22.154 70.4308 22.154V20.154ZM68.7895 19.8314C68.3678 19.6137 68.0623 19.325 67.8456 18.9617L66.128 19.9863C66.546 20.687 67.1365 21.2289 67.8722 21.6086L68.7895 19.8314ZM67.856 18.9795C67.6472 18.6126 67.5248 18.1541 67.5248 17.57H65.5248C65.5248 18.4419 65.7104 19.2528 66.1177 19.9685L67.856 18.9795ZM67.5248 17.57C67.5248 17.004 67.6428 16.5573 67.8448 16.1975L66.1008 15.2185C65.7055 15.9227 65.5248 16.7173 65.5248 17.57H67.5248ZM67.842 16.2025C68.0646 15.8113 68.3534 15.5228 68.715 15.3162L67.7227 13.5798C67.0389 13.9705 66.4971 14.522 66.1037 15.2135L67.842 16.2025ZM68.7199 15.3134C69.0815 15.1041 69.5159 14.986 70.0528 14.986V12.986C69.2084 12.986 68.4202 13.1759 67.7178 13.5826L68.7199 15.3134ZM70.0528 14.986C70.8201 14.986 71.3303 15.2194 71.6993 15.6176L73.1664 14.2584C72.3593 13.3873 71.2828 12.986 70.0528 12.986V14.986ZM71.7043 15.623C72.077 16.0194 72.3148 16.6005 72.3148 17.486H74.3148C74.3148 16.2248 73.9646 15.1072 73.1613 14.253L71.7043 15.623ZM72.3148 17.486V18.018H74.3148V17.486H72.3148ZM73.3148 17.018H68.5408V19.018H73.3148V17.018ZM67.5502 18.1546C67.6475 18.8601 67.9262 19.53 68.5069 19.9911L69.7507 18.4249C69.6967 18.382 69.5835 18.2586 69.5314 17.8814L67.5502 18.1546ZM68.5325 20.0107C69.0884 20.4237 69.7723 20.572 70.4728 20.572V18.572C70.0347 18.572 69.8226 18.4776 69.7252 18.4053L68.5325 20.0107ZM70.4728 20.572C70.9475 20.572 71.42 20.5006 71.8877 20.3637L71.3259 18.4443C71.0283 18.5314 70.7448 18.572 70.4728 18.572V20.572ZM71.8877 20.3637C72.3833 20.2187 72.8387 19.9922 73.2467 19.6831L72.039 18.0889C71.8309 18.2465 71.5957 18.3653 71.3259 18.4443L71.8877 20.3637ZM71.7131 19.2542L72.2731 20.6682L74.1326 19.9318L73.5726 18.5178L71.7131 19.2542ZM72.5994 19.5026C72.363 19.6815 72.0465 19.8446 71.6285 19.9762L72.2291 21.8838C72.8191 21.6981 73.352 21.4412 73.8063 21.0974L72.5994 19.5026ZM71.6398 19.9727C71.2365 20.0944 70.8345 20.154 70.4308 20.154V22.154C71.0352 22.154 71.6318 22.0642 72.2178 21.8873L71.6398 19.9727ZM70.1368 14.386C69.4715 14.386 68.8445 14.5948 68.3498 15.073L69.7398 16.511C69.8052 16.4478 69.9061 16.386 70.1368 16.386V14.386ZM68.3377 15.0849C67.8735 15.5492 67.6361 16.1513 67.5498 16.7926L69.5319 17.0594C69.5762 16.73 69.6749 16.5762 69.7519 16.4991L68.3377 15.0849ZM68.5408 17.926H71.5648V15.926H68.5408V17.926ZM72.5633 16.8715C72.5284 16.2312 72.3555 15.5832 71.8991 15.0911C71.4222 14.5767 70.7805 14.386 70.1368 14.386V16.386C70.267 16.386 70.3421 16.4048 70.3797 16.4188C70.4122 16.431 70.4244 16.4421 70.4326 16.4509C70.4522 16.4721 70.5452 16.5942 70.5663 16.9805L72.5633 16.8715ZM76.0144 20.72L75.5558 21.6086L75.5643 21.613L75.5729 21.6173L76.0144 20.72ZM74.6704 19.474L73.8013 19.9685L73.8063 19.9775L73.8116 19.9863L74.6704 19.474ZM74.6564 15.708L73.7872 15.2135L73.7844 15.2185L74.6564 15.708ZM75.9024 14.448L76.3986 15.3163L76.4035 15.3134L75.9024 14.448ZM80.1164 14.938L79.3828 15.6176L79.3879 15.623L80.1164 14.938ZM80.9984 18.018V19.018H81.9984V18.018H80.9984ZM76.2244 18.018V17.018H75.077L75.2338 18.1546L76.2244 18.018ZM76.8124 19.208L76.1905 19.9911L76.2032 20.0011L76.2161 20.0107L76.8124 19.208ZM79.2904 19.404L79.0095 18.4443H79.0095L79.2904 19.404ZM80.3264 18.886L81.2562 18.5178L80.7716 17.2942L79.7226 18.0889L80.3264 18.886ZM80.8864 20.3L81.4899 21.0974L82.0961 20.6386L81.8162 19.9318L80.8864 20.3ZM79.6124 20.93L79.9014 21.8874L79.9127 21.8838L79.6124 20.93ZM76.7284 15.792L76.0334 15.073L76.0273 15.0789L76.0213 15.0849L76.7284 15.792ZM76.2244 16.926L75.2334 16.7926L75.0808 17.926H76.2244V16.926ZM79.2484 16.926V17.926H80.3045L80.2469 16.8715L79.2484 16.926ZM78.1144 20.154C77.4197 20.154 76.8777 20.0303 76.4559 19.8227L75.5729 21.6173C76.3272 21.9884 77.1851 22.154 78.1144 22.154V20.154ZM76.4731 19.8314C76.0514 19.6137 75.7459 19.325 75.5292 18.9617L73.8116 19.9863C74.2296 20.687 74.8201 21.2289 75.5558 21.6086L76.4731 19.8314ZM75.5396 18.9795C75.3308 18.6126 75.2084 18.1541 75.2084 17.57H73.2084C73.2084 18.4419 73.394 19.2528 73.8013 19.9685L75.5396 18.9795ZM75.2084 17.57C75.2084 17.004 75.3264 16.5573 75.5284 16.1975L73.7844 15.2185C73.3891 15.9227 73.2084 16.7173 73.2084 17.57H75.2084ZM75.5256 16.2025C75.7482 15.8113 76.037 15.5228 76.3986 15.3162L75.4063 13.5798C74.7225 13.9705 74.1807 14.522 73.7873 15.2135L75.5256 16.2025ZM76.4035 15.3134C76.7651 15.1041 77.1995 14.986 77.7364 14.986V12.986C76.892 12.986 76.1038 13.1759 75.4014 13.5826L76.4035 15.3134ZM77.7364 14.986C78.5037 14.986 79.0139 15.2194 79.3829 15.6176L80.85 14.2584C80.0429 13.3873 78.9664 12.986 77.7364 12.986V14.986ZM79.3879 15.623C79.7606 16.0194 79.9984 16.6005 79.9984 17.486H81.9984C81.9984 16.2248 81.6482 15.1072 80.8449 14.253L79.3879 15.623ZM79.9984 17.486V18.018H81.9984V17.486H79.9984ZM80.9984 17.018H76.2244V19.018H80.9984V17.018ZM75.2338 18.1546C75.3311 18.8601 75.6098 19.53 76.1905 19.9911L77.4343 18.4249C77.3803 18.382 77.2671 18.2586 77.215 17.8814L75.2338 18.1546ZM76.2161 20.0107C76.772 20.4237 77.4559 20.572 78.1564 20.572V18.572C77.7183 18.572 77.5062 18.4776 77.4087 18.4053L76.2161 20.0107ZM78.1564 20.572C78.6311 20.572 79.1036 20.5006 79.5713 20.3637L79.0095 18.4443C78.7119 18.5314 78.4284 18.572 78.1564 18.572V20.572ZM79.5713 20.3637C80.0668 20.2187 80.5223 19.9922 80.9303 19.6831L79.7226 18.0889C79.5145 18.2465 79.2793 18.3653 79.0095 18.4443L79.5713 20.3637ZM79.3967 19.2542L79.9567 20.6682L81.8162 19.9318L81.2562 18.5178L79.3967 19.2542ZM80.283 19.5026C80.0466 19.6815 79.7301 19.8446 79.3121 19.9762L79.9127 21.8838C80.5027 21.6981 81.0356 21.4412 81.4899 21.0974L80.283 19.5026ZM79.3234 19.9727C78.9201 20.0944 78.5181 20.154 78.1144 20.154V22.154C78.7188 22.154 79.3154 22.0642 79.9014 21.8873L79.3234 19.9727ZM77.8204 14.386C77.1551 14.386 76.5281 14.5948 76.0334 15.073L77.4234 16.511C77.4888 16.4478 77.5897 16.386 77.8204 16.386V14.386ZM76.0213 15.0849C75.557 15.5492 75.3197 16.1513 75.2334 16.7926L77.2155 17.0594C77.2598 16.73 77.3585 16.5762 77.4355 16.4991L76.0213 15.0849ZM76.2244 17.926H79.2484V15.926H76.2244V17.926ZM80.2469 16.8715C80.212 16.2312 80.0391 15.5832 79.5827 15.0911C79.1058 14.5767 78.4641 14.386 77.8204 14.386V16.386C77.9506 16.386 78.0257 16.4048 78.0632 16.4188C78.0958 16.431 78.108 16.4421 78.1162 16.4509C78.1358 16.4721 78.2288 16.5942 78.2499 16.9805L80.2469 16.8715Z" fill="black" fill-opacity="0.6" mask="url(#path-4-outside-1_27_550)"/>
<rect x="1.25" y="1.25" width="101.5" height="31.5" rx="15.75" stroke="black" stroke-opacity="0.6" stroke-width="1.5"/>
</svg>
